<svg width="153" height="180" viewBox="0 0 153 180" fill="none" xmlns="http://www.w3.org/2000/svg">
<path d="M126.677 0C125.583 3.28057 125.583 3.28043 124.833 4.73145L124.333 5.71289L123.797 6.75391C123.409 7.51626 123.023 8.27932 122.638 9.04297L122.341 9.63281C121.388 11.5326 120.501 13.4603 119.619 15.3936C117.227 20.6159 114.677 25.7608 112.138 30.9131C110.192 34.8601 108.272 38.8201 106.378 42.792C105.543 44.541 104.701 46.2874 103.853 48.0303C102.022 51.8008 100.234 55.592 98.4893 59.4033C97.4028 61.7714 96.2653 64.1159 95.0771 66.4346C94.5334 67.5318 94.0502 68.6372 93.5781 69.7666L94.5918 69.7061C100.445 69.7265 106.133 72.505 110.329 76.4512C117.341 83.5316 118.309 92.7928 118.374 102.269C118.38 102.843 118.387 103.417 118.394 103.991C118.41 105.482 118.422 106.973 118.435 108.464C118.448 109.994 118.464 111.523 118.48 113.053C118.511 116.039 118.539 119.025 118.564 122.011C122.864 115.724 122.864 115.724 124.202 112.763L124.598 111.908C126.477 107.756 127.856 103.469 128.624 98.9717L128.825 97.8105C130.894 83.9439 127.336 69.6114 119.071 58.3076C118.584 57.6875 118.091 57.0727 117.591 56.4629L117.144 55.9121C112.002 49.6127 112.001 49.612 109.479 48.3506C109.684 46.8223 110.319 45.5467 110.998 44.1826L111.363 43.4365C111.754 42.64 112.147 41.844 112.541 41.0488C113.075 39.9626 113.609 38.876 114.142 37.7891L114.538 36.9824C115.715 34.5863 116.86 32.1748 117.974 29.749C118.818 27.9417 118.819 27.9416 119.538 27.582C122.344 29.4835 124.907 31.4944 127.361 33.833C128.103 34.5358 128.854 35.2026 129.638 35.8574C136.337 41.7032 141.469 49.7532 145.173 57.7607L145.465 58.3789C148.357 64.5284 150.138 70.8776 151.339 77.5547L151.57 78.8096C154.55 97.6448 149.738 117.87 138.631 133.357C137.904 134.344 137.164 135.322 136.411 136.289L135.708 137.203C123.294 152.832 105.505 162.674 85.79 165.494L85.0352 165.602C73.1664 167.031 60.1173 165.721 49.1211 160.951L48.9648 161.477C48.3425 163.461 47.5022 165.253 46.5459 167.096C44.9169 170.287 43.3996 173.52 41.917 176.781L41.4424 177.821L41.0225 178.749C40.6848 179.447 40.6846 179.447 40.3604 179.771C39.7432 179.802 39.124 179.81 38.5059 179.809H37.3057L35.999 179.804L34.668 179.802C33.4993 179.8 32.3307 179.798 31.1621 179.794C29.9701 179.791 28.7779 179.789 27.5859 179.788C25.2465 179.785 22.9061 179.779 20.5654 179.771C21.0405 178.306 21.607 176.935 22.2881 175.555L22.6055 174.904C22.8291 174.446 23.0536 173.987 23.2783 173.529C23.7541 172.558 24.2289 171.586 24.7021 170.613L25.416 169.148C26.3354 167.265 27.2477 165.377 28.1514 163.486L28.5625 162.625C29.4867 160.688 30.4049 158.747 31.3223 156.807L33.1963 152.846C34.9953 149.043 36.8147 145.25 38.6553 141.467C40.0381 138.62 41.391 135.758 42.7129 132.882C45.0622 127.778 47.541 122.738 50.0098 117.69C51.1406 115.377 52.2558 113.056 53.3623 110.73C54.1513 109.073 54.9463 107.419 55.748 105.768C57.6376 101.875 59.5221 97.9813 61.2754 94.0244C62.1281 92.1132 63.0499 90.2421 63.9902 88.373C65.2369 85.894 66.4482 83.3986 67.6582 80.9014L68.3867 79.4004C68.9924 78.1512 69.5979 76.9012 70.2031 75.6514C70.5133 75.0105 70.8238 74.3699 71.1348 73.7295C72.9396 70.0086 74.7355 66.2833 76.5059 62.5459L76.8828 61.751L78.4326 58.4775C80.597 53.908 82.8062 49.3616 85.0312 44.8213C86.8497 41.1084 88.6272 37.382 90.3506 33.624C92.0038 30.0355 93.7451 26.4913 95.4834 22.9434C97.2214 19.394 98.9202 15.833 100.549 12.2324C101.727 9.63259 102.992 7.08667 104.286 4.54297L106.558 0H126.677ZM76.7891 13.8525C81.2493 13.8623 85.619 14.0792 90.0088 14.9268L90.8359 15.0703L91.6426 15.2236L92.3672 15.3574L92.9287 15.5762C93.3108 16.723 93.0992 17.0534 92.5898 18.1016L92.2754 18.7246L91.9531 19.3799C91.6053 20.0873 91.2528 20.7926 90.9004 21.498C90.6607 21.9834 90.4214 22.4693 90.1826 22.9551C89.703 23.9298 89.223 24.9043 88.7412 25.8779C87.8141 27.7558 86.9119 29.6456 86.0127 31.5371C85.6167 32.3702 85.219 33.2024 84.8203 34.0342C84.528 34.6461 84.2379 35.26 83.9502 35.874C83.5182 36.6682 83.518 36.6687 82.8691 36.9932C82.3573 36.9156 81.8458 36.8369 81.335 36.7549C79.7394 36.5673 78.1258 36.6221 76.5215 36.6279L75.4482 36.624C73.5415 36.6263 71.6528 36.6909 69.751 36.833L68.5342 36.9229L67.6182 36.9932L67.6436 38.1963C67.7232 41.9758 67.7817 45.7562 67.8193 49.5361C67.8395 51.4787 67.8677 53.4203 67.9121 55.3623C68.1597 66.4378 66.8857 72.1463 62.0205 81.4082L61.5332 82.4287C60.6755 84.2392 59.8211 86.0513 58.9707 87.8652L57.6807 90.6162L57.3506 91.3184C55.3972 95.4801 53.3982 99.6184 51.3838 103.751L50.707 105.14L50.3779 105.814C48.9651 108.715 47.5803 111.63 46.2012 114.548H45.877V46.0791C44.0523 47.2956 42.4798 48.3526 40.9277 49.8311L40.4463 50.2783C33.3311 56.9298 27.8504 64.8856 25.1084 74.3096C25.0338 74.5648 24.9603 74.8209 24.8838 75.084C20.9269 89.0293 22.8029 103.635 29.7676 116.315C31.8813 120.035 34.5566 123.537 37.4893 126.646L38.1289 127.325L38.6992 127.9C39.0617 128.501 39.0626 128.501 38.9824 129.223C38.6959 130.279 38.2742 131.181 37.7891 132.163L37.498 132.759C37.1826 133.402 36.8651 134.045 36.5469 134.688C36.1035 135.591 35.661 136.494 35.2197 137.398L34.8799 138.095C34.1123 139.673 33.3628 141.261 32.6318 142.856L32.3389 143.495C31.877 144.502 31.4177 145.51 30.9619 146.52L30.4668 147.604L30.0352 148.558C29.6516 149.269 29.6518 149.269 29.0029 149.594C25.2469 146.748 21.5756 143.539 18.6191 139.858L17.7451 138.803C14.0981 134.359 10.8952 129.706 8.23438 124.607L7.87305 123.92C4.34773 117.145 2.04676 109.738 0.771484 102.217L0.589844 101.165C0.103755 97.9957 0.0115178 94.848 0.000976562 91.6602V89.3174C0.012334 84.1063 0.305272 79.0933 1.41992 73.9854L1.59961 73.1504C4.49834 60.079 10.8479 48.9476 19.5918 38.9395L20.373 38.0371C21.8294 36.3785 23.4125 34.8355 25.1084 33.4229L26.0146 32.627C36.0114 23.8873 48.0657 17.9859 61.0264 15.1699L61.7021 15.0215C66.4186 14.0585 71.1344 13.8331 75.9336 13.8525H76.7891ZM84.4922 87.9395C83.2147 90.256 81.9959 92.5744 80.9004 94.9834C78.9566 99.281 76.9007 103.521 74.8193 107.754C72.3441 112.788 69.8854 117.826 67.5146 122.91C66.4292 125.239 65.3353 127.562 64.207 129.87L63.8135 130.673C63.1824 131.964 62.5513 133.254 61.9141 134.542C61.6793 135.016 61.4451 135.491 61.2119 135.966L60.8857 136.63C60.2491 137.903 59.7103 139.084 59.5059 140.508L60.1543 140.833C70.7848 144.199 84.187 145.209 94.5518 140.194L95.252 139.84C95.6673 139.63 96.0829 139.42 96.498 139.21C96.5198 134.579 96.5368 129.948 96.5469 125.317C96.5517 123.062 96.5573 120.806 96.5684 118.551C96.5781 116.573 96.5856 114.596 96.5889 112.618C96.5897 111.775 96.5908 110.931 96.5928 110.088C96.6314 104.048 97.3181 96.9124 93.4062 91.8398C90.9769 89.1588 87.9731 88.3727 84.4922 87.9395Z" fill="url(#paint0_linear_4770_168)"/>
<defs>
<linearGradient id="paint0_linear_4770_168" x1="76.2179" y1="-2.2746e-10" x2="76.257" y2="190.642" gradientUnits="userSpaceOnUse">
<stop offset="0.296603" stop-color="white"/>
<stop offset="0.755493" stop-color="#6D6B71"/>
</linearGradient>
</defs>
</svg>
