<svg width="1548" height="1200" viewBox="0 0 1548 1200" fill="none" xmlns="http://www.w3.org/2000/svg">
<g clip-path="url(#clip0_643_157)">
<mask id="mask0_643_157" style="mask-type:luminance" maskUnits="userSpaceOnUse" x="0" y="0" width="1548" height="1200">
<path d="M1548 0.787476H0V1199.79H1548V0.787476Z" fill="white"/>
</mask>
<g mask="url(#mask0_643_157)">
<path d="M1548 0.787476H0V1199.79H1548V0.787476Z" fill="#101828"/>
<mask id="mask1_643_157" style="mask-type:luminance" maskUnits="userSpaceOnUse" x="129" y="-214" width="1290" height="523">
<path d="M129 309H1419V-213.138H129V309Z" fill="white"/>
</mask>
<g mask="url(#mask1_643_157)">
<path opacity="0.4" d="M129 313L1419 313V-289L129 -289V313Z" fill="url(#paint0_radial_643_157)"/>
</g>
<mask id="mask2_643_157" style="mask-type:luminance" maskUnits="userSpaceOnUse" x="35" y="-660" width="1220" height="1183">
<path d="M35.476 -16.3956L802.344 522.708L1254.28 -120.159L487.408 -659.263L35.476 -16.3956Z" fill="white"/>
</mask>
<g mask="url(#mask2_643_157)">
<g opacity="0.7">
<path opacity="0.11" d="M715.44 83.5186C714.743 83.4927 714.157 84.0369 714.131 84.734C714.105 85.4311 714.649 86.0173 715.346 86.0431C716.043 86.069 716.629 85.5248 716.655 84.8277C716.681 84.1306 716.137 83.5445 715.44 83.5186Z" fill="white"/>
<path d="M711.599 76.4274C711.077 76.408 710.637 76.816 710.618 77.3387C710.598 77.8614 711.006 78.3008 711.529 78.3202C712.052 78.3396 712.491 77.9316 712.511 77.4089C712.53 76.8862 712.122 76.4468 711.599 76.4274Z" fill="white"/>
<path d="M690.287 88.9009C689.764 88.8815 689.325 89.2895 689.305 89.8122C689.286 90.3349 689.694 90.7743 690.217 90.7937C690.739 90.8131 691.179 90.4051 691.198 89.8824C691.218 89.3597 690.81 88.9203 690.287 88.9009Z" fill="white"/>
<path d="M743.866 92.1558C743.343 92.1364 742.904 92.5444 742.884 93.0671C742.865 93.5898 743.273 94.0292 743.796 94.0486C744.318 94.068 744.758 93.66 744.777 93.1373C744.797 92.6146 744.389 92.1751 743.866 92.1558Z" fill="white"/>
<path opacity="0.11" d="M775.659 78.1738C774.961 78.1479 774.375 78.692 774.349 79.3892C774.324 80.0863 774.868 80.6724 775.565 80.6983C776.262 80.7241 776.848 80.18 776.874 79.4828C776.9 78.7857 776.356 78.1996 775.659 78.1738Z" fill="white"/>
<path d="M787.128 92.4963C786.78 92.4834 786.487 92.7552 786.474 93.1035C786.461 93.4518 786.733 93.7446 787.081 93.7575C787.43 93.7704 787.722 93.4986 787.735 93.1503C787.748 92.802 787.476 92.5092 787.128 92.4963Z" fill="white"/>
<path d="M718.251 58.9863C717.903 58.9734 717.61 59.2452 717.597 59.5935C717.584 59.9417 717.856 60.2346 718.204 60.2475C718.553 60.2604 718.845 59.9885 718.858 59.6403C718.871 59.292 718.599 58.9992 718.251 58.9863Z" fill="white"/>
<path d="M580.714 53.879C580.366 53.8661 580.073 54.1379 580.06 54.4862C580.047 54.8345 580.319 55.1273 580.667 55.1402C581.016 55.1531 581.308 54.8813 581.321 54.533C581.334 54.1847 581.062 53.8919 580.714 53.879Z" fill="white"/>
<path d="M510.686 85.3984C510.337 85.3855 510.045 85.6573 510.032 86.0056C510.019 86.3539 510.291 86.6467 510.639 86.6596C510.987 86.6725 511.28 86.4007 511.293 86.0524C511.306 85.7041 511.034 85.4113 510.686 85.3984Z" fill="white"/>
<path d="M487.788 38.4276C487.44 38.4147 487.147 38.6865 487.134 39.0348C487.121 39.383 487.393 39.6758 487.741 39.6888C488.09 39.7017 488.383 39.4298 488.395 39.0816C488.408 38.7333 488.137 38.4405 487.788 38.4276Z" fill="white"/>
<path d="M927.751 82.5537C927.403 82.5407 927.11 82.8126 927.097 83.1609C927.084 83.5091 927.356 83.8019 927.704 83.8149C928.053 83.8278 928.345 83.5559 928.358 83.2077C928.371 82.8594 928.099 82.5666 927.751 82.5537Z" fill="white"/>
<path opacity="0.11" d="M935.945 116.972C935.597 116.959 935.304 117.231 935.292 117.579C935.279 117.927 935.55 118.22 935.899 118.233C936.247 118.246 936.54 117.974 936.553 117.626C936.566 117.278 936.294 116.985 935.945 116.972Z" fill="white"/>
<path opacity="0.11" d="M963.61 103.467C963.261 103.454 962.968 103.726 962.956 104.074C962.943 104.422 963.215 104.715 963.563 104.728C963.911 104.741 964.204 104.469 964.217 104.121C964.23 103.773 963.958 103.48 963.61 103.467Z" fill="white"/>
<path opacity="0.11" d="M944.197 64.8409C943.849 64.828 943.556 65.0998 943.543 65.4481C943.531 65.7964 943.802 66.0892 944.151 66.1021C944.499 66.115 944.792 65.8432 944.805 65.4949C944.818 65.1466 944.546 64.8539 944.197 64.8409Z" fill="white"/>
<path opacity="0.11" d="M793.113 84.5089C792.764 84.496 792.471 84.7678 792.459 85.1161C792.446 85.4644 792.717 85.7571 793.066 85.7701C793.414 85.783 793.707 85.5112 793.72 85.1629C793.733 84.8146 793.461 84.5218 793.113 84.5089Z" fill="white"/>
<path opacity="0.11" d="M720.35 36.3168C720.002 36.3038 719.709 36.5757 719.696 36.924C719.683 37.2722 719.955 37.565 720.303 37.5779C720.651 37.5908 720.944 37.319 720.957 36.9708C720.97 36.6225 720.698 36.3297 720.35 36.3168Z" fill="white"/>
<path opacity="0.11" d="M598.988 38.1346C598.64 38.1217 598.347 38.3935 598.334 38.7418C598.322 39.0901 598.593 39.3829 598.942 39.3958C599.29 39.4087 599.583 39.1369 599.596 38.7886C599.609 38.4403 599.337 38.1475 598.988 38.1346Z" fill="white"/>
<path opacity="0.3" d="M898.142 97.2487C897.794 97.2358 897.501 97.5077 897.488 97.8559C897.475 98.2042 897.747 98.497 898.095 98.5099C898.443 98.5228 898.736 98.251 898.749 97.9027C898.762 97.5545 898.49 97.2617 898.142 97.2487Z" fill="white"/>
<path d="M751.775 125.933C751.426 125.921 751.134 126.192 751.121 126.541C751.108 126.889 751.38 127.182 751.728 127.195C752.076 127.208 752.369 126.936 752.382 126.587C752.395 126.239 752.123 125.946 751.775 125.933Z" fill="white"/>
<path d="M654.572 123.589C654.224 123.576 653.931 123.848 653.918 124.197C653.906 124.545 654.177 124.838 654.526 124.851C654.874 124.863 655.167 124.592 655.18 124.243C655.193 123.895 654.921 123.602 654.572 123.589Z" fill="white"/>
<path d="M796.828 69.4823C796.48 69.4694 796.187 69.7412 796.174 70.0895C796.161 70.4378 796.433 70.7305 796.782 70.7434C797.13 70.7564 797.423 70.4845 797.436 70.1363C797.448 69.788 797.177 69.4952 796.828 69.4823Z" fill="white"/>
<path opacity="0.3" d="M840.992 71.121C840.644 71.108 840.351 71.3799 840.338 71.7282C840.325 72.0764 840.597 72.3692 840.946 72.3821C841.294 72.395 841.587 72.1232 841.6 71.775C841.612 71.4267 841.341 71.1339 840.992 71.121Z" fill="white"/>
<path opacity="0.11" d="M891.268 112.154C890.92 112.141 890.627 112.413 890.614 112.761C890.601 113.109 890.873 113.402 891.221 113.415C891.569 113.428 891.862 113.156 891.875 112.808C891.888 112.459 891.616 112.167 891.268 112.154Z" fill="white"/>
<path opacity="0.3" d="M740.975 110.368C740.627 110.355 740.334 110.627 740.321 110.975C740.308 111.323 740.58 111.616 740.928 111.629C741.276 111.642 741.569 111.37 741.582 111.022C741.595 110.674 741.323 110.381 740.975 110.368Z" fill="white"/>
<path opacity="0.3" d="M786.544 57.0954C786.196 57.0825 785.903 57.3543 785.89 57.7026C785.877 58.0509 786.149 58.3437 786.497 58.3566C786.846 58.3695 787.138 58.0977 787.151 57.7494C787.164 57.4011 786.892 57.1083 786.544 57.0954Z" fill="white"/>
<path opacity="0.3" d="M863.118 53.621C862.77 53.608 862.477 53.8799 862.464 54.2282C862.451 54.5764 862.723 54.8692 863.072 54.8821C863.42 54.895 863.713 54.6232 863.726 54.275C863.738 53.9267 863.467 53.6339 863.118 53.621Z" fill="white"/>
<path opacity="0.3" d="M879.845 96.566C879.497 96.5531 879.204 96.8249 879.191 97.1732C879.178 97.5215 879.45 97.8143 879.798 97.8272C880.146 97.8401 880.439 97.5683 880.452 97.22C880.465 96.8717 880.193 96.5789 879.845 96.566Z" fill="white"/>
<path opacity="0.3" d="M487.367 83.9004C487.019 83.8874 486.726 84.1593 486.713 84.5075C486.7 84.8558 486.972 85.1486 487.321 85.1615C487.669 85.1745 487.962 84.9026 487.975 84.5543C487.987 84.2061 487.716 83.9133 487.367 83.9004Z" fill="white"/>
<path opacity="0.11" d="M587.981 113.537C587.632 113.524 587.34 113.796 587.327 114.144C587.314 114.492 587.586 114.785 587.934 114.798C588.282 114.811 588.575 114.539 588.588 114.191C588.601 113.842 588.329 113.55 587.981 113.537Z" fill="white"/>
<path opacity="0.11" d="M505.406 57.4065C505.058 57.3935 504.765 57.6654 504.752 58.0137C504.74 58.3619 505.011 58.6547 505.36 58.6676C505.708 58.6806 506.001 58.4087 506.014 58.0605C506.027 57.7122 505.755 57.4194 505.406 57.4065Z" fill="white"/>
<path opacity="0.3" d="M665.234 57.6486C664.537 57.6228 663.951 58.1669 663.925 58.864C663.899 59.5612 664.443 60.1473 665.14 60.1731C665.837 60.199 666.423 59.6548 666.449 58.9577C666.475 58.2606 665.931 57.6745 665.234 57.6486Z" fill="white"/>
<path opacity="0.11" d="M627.306 75.1935C626.609 75.1677 626.023 75.7118 625.997 76.409C625.971 77.1061 626.515 77.6922 627.212 77.7181C627.909 77.7439 628.496 77.1998 628.521 76.5026C628.547 75.8055 628.003 75.2194 627.306 75.1935Z" fill="white"/>
<path d="M626.801 97.2849C626.278 97.2655 625.838 97.6735 625.819 98.1962C625.8 98.7189 626.208 99.1584 626.73 99.1778C627.253 99.1972 627.692 98.7892 627.712 98.2665C627.731 97.7438 627.323 97.3043 626.801 97.2849Z" fill="white"/>
<path d="M672.788 32.6566C672.265 32.6372 671.826 33.0453 671.806 33.568C671.787 34.0907 672.195 34.5301 672.718 34.5495C673.24 34.5689 673.68 34.1609 673.699 33.6382C673.719 33.1155 673.311 32.676 672.788 32.6566Z" fill="white"/>
<path d="M463.804 12.2679C463.282 12.2486 462.842 12.6566 462.823 13.1793C462.804 13.702 463.211 14.1414 463.734 14.1608C464.257 14.1802 464.696 13.7722 464.716 13.2495C464.735 12.7268 464.327 12.2873 463.804 12.2679Z" fill="white"/>
<path d="M872.854 38.1885C872.332 38.1691 871.892 38.5771 871.873 39.0998C871.853 39.6225 872.261 40.0619 872.784 40.0813C873.307 40.1007 873.746 39.6927 873.766 39.17C873.785 38.6473 873.377 38.2079 872.854 38.1885Z" fill="white"/>
<path d="M956.218 55.8098C955.695 55.7904 955.255 56.1985 955.236 56.7212C955.217 57.2439 955.625 57.6833 956.147 57.7027C956.67 57.7221 957.109 57.3141 957.129 56.7914C957.148 56.2687 956.74 55.8292 956.218 55.8098Z" fill="white"/>
<path d="M966.009 81.4441C965.486 81.4247 965.046 81.8327 965.027 82.3554C965.008 82.8781 965.416 83.3176 965.938 83.337C966.461 83.3563 966.9 82.9483 966.92 82.4256C966.939 81.9029 966.531 81.4635 966.009 81.4441Z" fill="white"/>
<path d="M657.55 85.7891C657.027 85.7697 656.587 86.1777 656.568 86.7004C656.549 87.2231 656.957 87.6625 657.479 87.6819C658.002 87.7013 658.442 87.2933 658.461 86.7706C658.48 86.2479 658.072 85.8085 657.55 85.7891Z" fill="white"/>
<path d="M769.055 43.1798C768.533 43.1604 768.093 43.5684 768.074 44.0911C768.055 44.6138 768.463 45.0533 768.985 45.0727C769.508 45.0921 769.947 44.684 769.967 44.1614C769.986 43.6387 769.578 43.1992 769.055 43.1798Z" fill="white"/>
<path d="M611.079 10.1509C610.556 10.1315 610.117 10.5395 610.097 11.0622C610.078 11.5849 610.486 12.0243 611.009 12.0437C611.531 12.0631 611.971 11.6551 611.99 11.1324C612.01 10.6097 611.602 10.1703 611.079 10.1509Z" fill="white"/>
<path d="M442.306 46.8499C441.784 46.8305 441.344 47.2385 441.325 47.7612C441.306 48.2839 441.714 48.7233 442.236 48.7427C442.759 48.7621 443.198 48.3541 443.218 47.8314C443.237 47.3087 442.829 46.8693 442.306 46.8499Z" fill="white"/>
<path d="M425.876 80.9838C425.353 80.9644 424.914 81.3724 424.894 81.8951C424.875 82.4178 425.283 82.8572 425.806 82.8766C426.328 82.896 426.768 82.488 426.787 81.9653C426.806 81.4426 426.398 81.0032 425.876 80.9838Z" fill="white"/>
<path opacity="0.3" d="M574.773 94.723C574.076 94.6971 573.49 95.2413 573.464 95.9384C573.438 96.6355 573.982 97.2216 574.679 97.2475C575.376 97.2733 575.962 96.7292 575.988 96.0321C576.014 95.3349 575.47 94.7488 574.773 94.723Z" fill="white"/>
<path d="M573.116 139.517C572.418 139.491 571.832 140.035 571.806 140.732C571.781 141.429 572.325 142.015 573.022 142.041C573.719 142.067 574.305 141.523 574.331 140.826C574.357 140.129 573.813 139.542 573.116 139.517Z" fill="white"/>
<path d="M542.799 79.6374C542.276 79.618 541.836 80.026 541.817 80.5487C541.798 81.0714 542.206 81.5108 542.728 81.5302C543.251 81.5496 543.691 81.1416 543.71 80.6189C543.729 80.0962 543.321 79.6567 542.799 79.6374Z" fill="white"/>
<path opacity="0.3" d="M511.286 103.106C510.588 103.08 510.002 103.624 509.976 104.321C509.951 105.019 510.495 105.605 511.192 105.631C511.889 105.656 512.475 105.112 512.501 104.415C512.527 103.718 511.983 103.132 511.286 103.106Z" fill="white"/>
<path opacity="0.3" d="M450.491 55.9957C449.793 55.9698 449.207 56.514 449.182 57.2111C449.156 57.9082 449.7 58.4943 450.397 58.5202C451.094 58.546 451.68 58.0019 451.706 57.3048C451.732 56.6076 451.188 56.0215 450.491 55.9957Z" fill="white"/>
<path opacity="0.3" d="M524.353 57.4747C523.656 57.4488 523.07 57.993 523.044 58.6901C523.018 59.3872 523.562 59.9733 524.259 59.9992C524.956 60.0251 525.542 59.4809 525.568 58.7838C525.594 58.0866 525.05 57.5005 524.353 57.4747Z" fill="white"/>
<path opacity="0.3" d="M886.878 60.1879C886.181 60.1621 885.595 60.7062 885.569 61.4034C885.543 62.1005 886.087 62.6866 886.785 62.7124C887.482 62.7383 888.068 62.1942 888.094 61.497C888.12 60.7999 887.575 60.2138 886.878 60.1879Z" fill="white"/>
<path opacity="0.3" d="M936.7 96.7842C936.002 96.7584 935.416 97.3026 935.39 97.9997C935.365 98.6968 935.909 99.2829 936.606 99.3088C937.303 99.3346 937.889 98.7905 937.915 98.0933C937.941 97.3962 937.397 96.8101 936.7 96.7842Z" fill="white"/>
<path opacity="0.11" d="M475.655 75.8822C474.958 75.8563 474.371 76.4004 474.346 77.0976C474.32 77.7947 474.864 78.3808 475.561 78.4067C476.258 78.4325 476.844 77.8884 476.87 77.1912C476.896 76.4941 476.352 75.908 475.655 75.8822Z" fill="white"/>
<path opacity="0.3" d="M845.686 114.885C844.989 114.859 844.403 115.404 844.377 116.101C844.351 116.798 844.895 117.384 845.592 117.41C846.289 117.436 846.875 116.891 846.901 116.194C846.927 115.497 846.383 114.911 845.686 114.885Z" fill="white"/>
<path opacity="0.11" d="M862.25 128.137C861.553 128.111 860.967 128.655 860.941 129.352C860.915 130.049 861.46 130.635 862.157 130.661C862.854 130.687 863.44 130.143 863.466 129.446C863.492 128.749 862.947 128.162 862.25 128.137Z" fill="white"/>
<path opacity="0.3" d="M868.792 87.9445C868.095 87.9186 867.509 88.4628 867.483 89.1599C867.457 89.8571 868.002 90.4432 868.699 90.469C869.396 90.4949 869.982 89.9507 870.008 89.2536C870.034 88.5565 869.489 87.9704 868.792 87.9445Z" fill="white"/>
<path d="M829.344 87.1145C828.821 87.0951 828.381 87.5032 828.362 88.0258C828.343 88.5485 828.751 88.988 829.273 89.0074C829.796 89.0268 830.235 88.6188 830.255 88.0961C830.274 87.5734 829.866 87.1339 829.344 87.1145Z" fill="white"/>
<path opacity="0.11" d="M607.873 5.81252C607.525 5.7996 607.232 6.07142 607.219 6.41968C607.206 6.76795 607.478 7.06076 607.826 7.07368C608.175 7.0866 608.468 6.81474 608.48 6.46648C608.493 6.11821 608.221 5.82544 607.873 5.81252Z" fill="white"/>
<path d="M423.704 14.7744C423.356 14.7615 423.063 15.0333 423.05 15.3816C423.037 15.7299 423.309 16.0226 423.657 16.0356C424.006 16.0485 424.299 15.7766 424.311 15.4284C424.324 15.0801 424.053 14.7873 423.704 14.7744Z" fill="white"/>
<path d="M326.5 12.4298C326.152 12.4168 325.859 12.6887 325.846 13.037C325.833 13.3852 326.105 13.678 326.453 13.691C326.802 13.7039 327.094 13.432 327.107 13.0838C327.12 12.7355 326.848 12.4427 326.5 12.4298Z" fill="white"/>
<path opacity="0.11" d="M563.195 0.994766C562.846 0.981844 562.553 1.2537 562.541 1.60197C562.528 1.95023 562.799 2.24301 563.148 2.25593C563.496 2.26885 563.789 1.99703 563.802 1.64876C563.815 1.3005 563.543 1.00769 563.195 0.994766Z" fill="white"/>
<path opacity="0.11" d="M259.906 2.37792C259.558 2.365 259.265 2.63685 259.252 2.98511C259.24 3.33338 259.511 3.62619 259.86 3.63911C260.208 3.65203 260.501 3.38017 260.514 3.03191C260.527 2.68364 260.255 2.39084 259.906 2.37792Z" fill="white"/>
<path d="M245.043 28.3574C244.346 28.3315 243.76 28.8757 243.734 29.5728C243.708 30.2699 244.253 30.856 244.95 30.8819C245.647 30.9077 246.233 30.3636 246.259 29.6665C246.285 28.9693 245.74 28.3832 245.043 28.3574Z" fill="white"/>
<path opacity="0.3" d="M517.613 3.7264C516.916 3.70054 516.329 4.24471 516.304 4.94183C516.278 5.63896 516.822 6.22506 517.519 6.25093C518.216 6.27679 518.802 5.73262 518.828 5.0355C518.854 4.33837 518.31 3.75227 517.613 3.7264Z" fill="white"/>
<path opacity="0.11" d="M534.179 16.9761C533.482 16.9503 532.896 17.4944 532.87 18.1916C532.844 18.8887 533.388 19.4748 534.085 19.5007C534.783 19.5265 535.369 18.9824 535.394 18.2852C535.42 17.5881 534.876 17.002 534.179 16.9761Z" fill="white"/>
</g>
</g>
<g filter="url(#filter0_f_643_157)">
<g opacity="0.8" filter="url(#filter1_f_643_157)">
<path d="M1169.49 -605.24L1197.45 -589.092L914.171 -98.4276L713.062 230.9L886.203 -114.575L1169.49 -605.24Z" fill="url(#paint1_linear_643_157)"/>
</g>
<g opacity="0.8" filter="url(#filter2_f_643_157)">
<path d="M1073.52 -681L1101.49 -664.853L818.205 -174.188L617.096 155.14L790.237 -190.335L1073.52 -681Z" fill="url(#paint2_linear_643_157)"/>
</g>
<g style="mix-blend-mode:soft-light" opacity="0.8" filter="url(#filter3_f_643_157)">
<path d="M1283.63 -655.446L1311.59 -639.298L1028.31 -148.634L827.203 180.694L1000.34 -164.781L1283.63 -655.446Z" fill="url(#paint3_linear_643_157)"/>
</g>
<g style="mix-blend-mode:overlay" filter="url(#filter4_f_643_157)">
<path d="M1102.24 -596.871L1130.21 -580.724L846.923 -90.0593L645.814 239.268L818.955 -106.207L1102.24 -596.871Z" fill="url(#paint4_linear_643_157)"/>
</g>
<g opacity="0.8" filter="url(#filter5_f_643_157)">
<path d="M1169.49 -605.24L1197.45 -589.092L914.171 -98.4276L713.062 230.9L886.203 -114.575L1169.49 -605.24Z" fill="url(#paint5_linear_643_157)"/>
</g>
<g opacity="0.8" filter="url(#filter6_f_643_157)">
<path d="M1073.52 -681L1101.49 -664.853L818.205 -174.188L617.096 155.14L790.237 -190.335L1073.52 -681Z" fill="url(#paint6_linear_643_157)"/>
</g>
<g style="mix-blend-mode:soft-light" opacity="0.8" filter="url(#filter7_f_643_157)">
<path d="M1283.63 -655.446L1311.59 -639.298L1028.31 -148.634L827.203 180.694L1000.34 -164.781L1283.63 -655.446Z" fill="url(#paint7_linear_643_157)"/>
</g>
<g style="mix-blend-mode:overlay" filter="url(#filter8_f_643_157)">
<path d="M1102.24 -596.871L1130.21 -580.724L846.923 -90.0593L645.814 239.268L818.955 -106.207L1102.24 -596.871Z" fill="url(#paint8_linear_643_157)"/>
</g>
<g opacity="0.8" filter="url(#filter9_f_643_157)">
<path d="M1169.49 -605.24L1197.45 -589.092L914.171 -98.4276L713.062 230.9L886.203 -114.575L1169.49 -605.24Z" fill="url(#paint9_linear_643_157)"/>
</g>
<g opacity="0.8" filter="url(#filter10_f_643_157)">
<path d="M1073.52 -681L1101.49 -664.853L818.205 -174.188L617.096 155.14L790.237 -190.335L1073.52 -681Z" fill="url(#paint10_linear_643_157)"/>
</g>
<g style="mix-blend-mode:soft-light" opacity="0.8" filter="url(#filter11_f_643_157)">
<path d="M1283.63 -655.446L1311.59 -639.298L1028.31 -148.634L827.203 180.694L1000.34 -164.781L1283.63 -655.446Z" fill="url(#paint11_linear_643_157)"/>
</g>
<g style="mix-blend-mode:overlay" filter="url(#filter12_f_643_157)">
<path d="M1102.24 -596.871L1130.21 -580.724L846.923 -90.0593L645.814 239.268L818.955 -106.207L1102.24 -596.871Z" fill="url(#paint12_linear_643_157)"/>
</g>
<g opacity="0.8" filter="url(#filter13_f_643_157)">
<path d="M1169.49 -605.241L1197.45 -589.093L914.172 -98.4284L713.063 230.899L886.204 -114.576L1169.49 -605.241Z" fill="url(#paint13_linear_643_157)"/>
</g>
<g opacity="0.8" filter="url(#filter14_f_643_157)">
<path d="M1060.72 -667.375L1088.68 -651.227L805.402 -160.562L604.293 168.765L777.434 -176.71L1060.72 -667.375Z" fill="url(#paint14_linear_643_157)"/>
</g>
<g style="mix-blend-mode:soft-light" opacity="0.8" filter="url(#filter15_f_643_157)">
<path d="M1283.63 -655.447L1311.6 -639.299L1028.31 -148.634L827.204 180.693L1000.34 -164.782L1283.63 -655.447Z" fill="url(#paint15_linear_643_157)"/>
</g>
<g style="mix-blend-mode:overlay" filter="url(#filter16_f_643_157)">
<path d="M1194.31 -616.951L1222.27 -600.804L938.991 -110.139L737.882 219.189L911.023 -126.286L1194.31 -616.951Z" fill="url(#paint16_linear_643_157)"/>
</g>
<g style="mix-blend-mode:overlay" filter="url(#filter17_f_643_157)">
<path d="M1034.43 -448.82L1062.39 -432.673L779.109 57.9918L578 387.319L751.141 41.8446L1034.43 -448.82Z" fill="url(#paint17_linear_643_157)"/>
</g>
</g>
<g opacity="0.8" filter="url(#filter18_f_643_157)">
<path d="M1120.3 -601.568L1148.26 -585.42L864.978 -94.7556L663.869 234.572L837.01 -110.903L1120.3 -601.568Z" fill="url(#paint18_linear_643_157)"/>
</g>
<g opacity="0.8" filter="url(#filter19_f_643_157)">
<path d="M1024.33 -677.328L1052.3 -661.181L769.012 -170.516L567.903 158.812L741.044 -186.663L1024.33 -677.328Z" fill="url(#paint19_linear_643_157)"/>
</g>
<g style="mix-blend-mode:soft-light" opacity="0.8" filter="url(#filter20_f_643_157)">
<path d="M1234.44 -651.774L1262.4 -635.626L979.119 -144.962L778.01 184.366L951.151 -161.109L1234.44 -651.774Z" fill="url(#paint20_linear_643_157)"/>
</g>
<g style="mix-blend-mode:overlay" filter="url(#filter21_f_643_157)">
<path d="M1053.05 -593.199L1081.02 -577.052L797.73 -86.3873L596.621 242.94L769.762 -102.535L1053.05 -593.199Z" fill="url(#paint21_linear_643_157)"/>
</g>
<g opacity="0.8" filter="url(#filter22_f_643_157)">
<path d="M1120.3 -601.568L1148.26 -585.42L864.978 -94.7556L663.869 234.572L837.01 -110.903L1120.3 -601.568Z" fill="url(#paint22_linear_643_157)"/>
</g>
<g opacity="0.8" filter="url(#filter23_f_643_157)">
<path d="M1024.33 -677.328L1052.3 -661.181L769.012 -170.516L567.903 158.812L741.044 -186.663L1024.33 -677.328Z" fill="url(#paint23_linear_643_157)"/>
</g>
<g style="mix-blend-mode:soft-light" opacity="0.8" filter="url(#filter24_f_643_157)">
<path d="M1234.44 -651.774L1262.4 -635.626L979.119 -144.962L778.01 184.366L951.151 -161.109L1234.44 -651.774Z" fill="url(#paint24_linear_643_157)"/>
</g>
<g style="mix-blend-mode:overlay" filter="url(#filter25_f_643_157)">
<path d="M1053.05 -593.199L1081.02 -577.052L797.73 -86.3873L596.621 242.94L769.762 -102.535L1053.05 -593.199Z" fill="url(#paint25_linear_643_157)"/>
</g>
<g opacity="0.8" filter="url(#filter26_f_643_157)">
<path d="M1120.3 -601.568L1148.26 -585.42L864.978 -94.7556L663.869 234.572L837.01 -110.903L1120.3 -601.568Z" fill="url(#paint26_linear_643_157)"/>
</g>
<g opacity="0.8" filter="url(#filter27_f_643_157)">
<path d="M1024.33 -677.328L1052.3 -661.181L769.012 -170.516L567.903 158.812L741.044 -186.663L1024.33 -677.328Z" fill="url(#paint27_linear_643_157)"/>
</g>
<g style="mix-blend-mode:soft-light" opacity="0.8" filter="url(#filter28_f_643_157)">
<path d="M1234.44 -651.774L1262.4 -635.626L979.119 -144.962L778.01 184.366L951.151 -161.109L1234.44 -651.774Z" fill="url(#paint28_linear_643_157)"/>
</g>
<g style="mix-blend-mode:overlay" filter="url(#filter29_f_643_157)">
<path d="M1053.05 -593.199L1081.02 -577.052L797.73 -86.3873L596.621 242.94L769.762 -102.535L1053.05 -593.199Z" fill="url(#paint29_linear_643_157)"/>
</g>
<g opacity="0.8" filter="url(#filter30_f_643_157)">
<path d="M1120.3 -601.569L1148.26 -585.421L864.979 -94.7564L663.87 234.571L837.011 -110.904L1120.3 -601.569Z" fill="url(#paint30_linear_643_157)"/>
</g>
<g opacity="0.8" filter="url(#filter31_f_643_157)">
<path d="M1076.45 -625.908L1104.42 -609.761L821.136 -119.096L620.027 210.232L793.169 -135.243L1076.45 -625.908Z" fill="url(#paint31_linear_643_157)"/>
</g>
<g opacity="0.8" filter="url(#filter32_f_643_157)">
<path d="M1011.53 -663.703L1039.49 -647.555L756.209 -156.89L555.1 172.437L728.241 -173.038L1011.53 -663.703Z" fill="url(#paint32_linear_643_157)"/>
</g>
<g style="mix-blend-mode:soft-light" opacity="0.8" filter="url(#filter33_f_643_157)">
<path d="M1234.44 -651.775L1262.41 -635.627L979.12 -144.962L778.011 184.365L951.152 -161.11L1234.44 -651.775Z" fill="url(#paint33_linear_643_157)"/>
</g>
<g style="mix-blend-mode:overlay" filter="url(#filter34_f_643_157)">
<path d="M1145.12 -613.279L1173.08 -597.132L889.798 -106.467L688.689 222.861L861.83 -122.614L1145.12 -613.279Z" fill="url(#paint34_linear_643_157)"/>
</g>
<g style="mix-blend-mode:overlay" filter="url(#filter35_f_643_157)">
<path d="M985.233 -445.148L1013.2 -429.001L729.916 61.6638L528.807 390.991L701.948 45.5166L985.233 -445.148Z" fill="url(#paint35_linear_643_157)" fill-opacity="0.3"/>
</g>
<g style="mix-blend-mode:overlay">
<path d="M-168.744 -91.6766H-207.475V-47.8429M-168.744 -91.6766V-47.8429M-168.744 -91.6766H-130.013M-207.475 -47.8429H-168.744M-207.475 -47.8429V-4.00912M-168.744 -47.8429V-4.00912M-168.744 -47.8429H-130.013M-130.013 -91.6766V-47.8429M-130.013 -91.6766H-91.2821M-168.744 -4.00912H-207.475M-168.744 -4.00912V39.8246M-168.744 -4.00912H-130.013M-130.013 -47.8429V-4.00912M-130.013 -47.8429H-91.2821M-207.475 -4.00912V39.8246M-168.744 39.8246H-207.475M-168.744 39.8246V83.6583M-168.744 39.8246H-130.013M-130.013 -4.00912V39.8246M-130.013 -4.00912H-91.2821M-207.475 39.8246V83.6583M-168.744 83.6583H-207.475M-168.744 83.6583V127.492M-168.744 83.6583H-130.013M-130.013 39.8246V83.6583M-130.013 39.8246H-91.2821M-207.475 83.6583V127.492M-168.744 127.492H-207.475M-168.744 127.492V171.326M-168.744 127.492H-130.013M-130.013 83.6583V127.492M-130.013 83.6583H-91.2821M-207.475 127.492V171.326M-168.744 171.326H-207.475M-168.744 171.326V215.16M-168.744 171.326H-130.013M-130.013 127.492V171.326M-130.013 127.492H-91.2821M-207.475 171.326V215.16M-168.744 215.16H-207.475M-168.744 215.16V258.993M-168.744 215.16H-130.013M-130.013 171.326V215.16M-130.013 171.326H-91.2821M-207.475 215.16V258.993M-168.744 258.993H-207.475M-168.744 258.993V302.827M-168.744 258.993H-130.013M-130.013 215.16V258.993M-130.013 215.16H-91.2821M-207.475 258.993V302.827M-168.744 302.827H-207.475M-168.744 302.827V346.661M-168.744 302.827H-130.013M-130.013 258.993V302.827M-130.013 258.993H-91.2821M-207.475 302.827V346.661M-168.744 346.661H-207.475M-168.744 346.661V390.495M-168.744 346.661H-130.013M-130.013 302.827V346.661M-130.013 302.827H-91.2821M-207.475 346.661V390.495M-168.744 390.495H-207.475M-168.744 390.495V434.328M-168.744 390.495H-130.013M-130.013 346.661V390.495M-130.013 346.661H-91.2821M-207.475 390.495V434.328M-168.744 434.328H-207.475M-168.744 434.328V478.162M-168.744 434.328H-130.013M-130.013 390.495V434.328M-130.013 390.495H-91.2821M-207.475 434.328V478.162M-168.744 478.162H-207.475M-168.744 478.162V521.996M-168.744 478.162H-130.013M-130.013 434.328V478.162M-130.013 434.328H-91.2821M-207.475 478.162V521.996M-168.744 521.996H-207.475M-168.744 521.996V565.829M-168.744 521.996H-130.013M-130.013 478.162V521.996M-130.013 478.162H-91.2821M-207.475 521.996V565.829M-168.744 565.829H-207.475M-168.744 565.829V609.663M-168.744 565.829H-130.013M-130.013 521.996V565.829M-130.013 521.996H-91.2821M-207.475 565.829V609.663M-168.744 609.663H-207.475M-168.744 609.663V653.497M-168.744 609.663H-130.013M-130.013 565.829V609.663M-130.013 565.829H-91.2821M-207.475 609.663V653.497M-168.744 653.497H-207.475M-168.744 653.497V697.331M-168.744 653.497H-130.013M-130.013 609.663V653.497M-130.013 609.663H-91.2821M-207.475 653.497V697.331M-168.744 697.331H-207.475M-168.744 697.331V741.164M-168.744 697.331H-130.013M-130.013 653.497V697.331M-130.013 653.497H-91.2821M-207.475 697.331V741.164H-168.744M-168.744 741.164H-130.013M-130.013 697.331V741.164M-130.013 697.331H-91.2821M-130.013 741.164H-91.2821M-91.2821 -91.6766V-47.8429M-91.2821 -91.6766H-52.5513M-91.2821 -47.8429V-4.00912M-91.2821 -47.8429H-52.5513M-91.2821 -4.00912V39.8246M-91.2821 -4.00912H-52.5513M-91.2821 39.8246V83.6583M-91.2821 39.8246H-52.5513M-91.2821 83.6583V127.492M-91.2821 83.6583H-52.5513M-91.2821 127.492V171.326M-91.2821 127.492H-52.5513M-91.2821 171.326V215.16M-91.2821 171.326H-52.5513M-91.2821 215.16V258.993M-91.2821 215.16H-52.5513M-91.2821 258.993V302.827M-91.2821 258.993H-52.5513M-91.2821 302.827V346.661M-91.2821 302.827H-52.5513M-91.2821 346.661V390.495M-91.2821 346.661H-52.5513M-91.2821 390.495V434.328M-91.2821 390.495H-52.5513M-91.2821 434.328V478.162M-91.2821 434.328H-52.5513M-91.2821 478.162V521.996M-91.2821 478.162H-52.5513M-91.2821 521.996V565.829M-91.2821 521.996H-52.5513M-91.2821 565.829V609.663M-91.2821 565.829H-52.5513M-91.2821 609.663V653.497M-91.2821 609.663H-52.5513M-91.2821 653.497V697.331M-91.2821 653.497H-52.5513M-91.2821 697.331V741.164M-91.2821 697.331H-52.5513M-91.2821 741.164H-52.5513M-52.5513 -91.6766V-47.8429M-52.5513 -91.6766H-13.8204M-52.5513 -47.8429V-4.00912M-52.5513 -47.8429H-13.8204M-52.5513 -4.00912V39.8246M-52.5513 -4.00912H-13.8204M-52.5513 39.8246V83.6583M-52.5513 39.8246H-13.8204M-52.5513 83.6583V127.492M-52.5513 83.6583H-13.8204M-52.5513 127.492V171.326M-52.5513 127.492H-13.8204M-52.5513 171.326V215.16M-52.5513 171.326H-13.8204M-52.5513 215.16V258.993M-52.5513 215.16H-13.8204M-52.5513 258.993V302.827M-52.5513 258.993H-13.8204M-52.5513 302.827V346.661M-52.5513 302.827H-13.8204M-52.5513 346.661V390.495M-52.5513 346.661H-13.8204M-52.5513 390.495V434.328M-52.5513 390.495H-13.8204M-52.5513 434.328V478.162M-52.5513 434.328H-13.8204M-52.5513 478.162V521.996M-52.5513 478.162H-13.8204M-52.5513 521.996V565.829M-52.5513 521.996H-13.8204M-52.5513 565.829V609.663M-52.5513 565.829H-13.8204M-52.5513 609.663V653.497M-52.5513 609.663H-13.8204M-52.5513 653.497V697.331M-52.5513 653.497H-13.8204M-52.5513 697.331V741.164M-52.5513 697.331H-13.8204M-52.5513 741.164H-13.8204M-13.8204 -91.6766V-47.8429M-13.8204 -91.6766H24.9105M-13.8204 -47.8429V-4.00912M-13.8204 -47.8429H24.9105M-13.8204 -4.00912V39.8246M-13.8204 -4.00912H24.9105M-13.8204 39.8246V83.6583M-13.8204 39.8246H24.9105M-13.8204 83.6583V127.492M-13.8204 83.6583H24.9105M-13.8204 127.492V171.326M-13.8204 127.492H24.9105M-13.8204 171.326V215.16M-13.8204 171.326H24.9105M-13.8204 215.16V258.993M-13.8204 215.16H24.9105M-13.8204 258.993V302.827M-13.8204 258.993H24.9105M-13.8204 302.827V346.661M-13.8204 302.827H24.9105M-13.8204 346.661V390.495M-13.8204 346.661H24.9105M-13.8204 390.495V434.328M-13.8204 390.495H24.9105M-13.8204 434.328V478.162M-13.8204 434.328H24.9105M-13.8204 478.162V521.996M-13.8204 478.162H24.9105M-13.8204 521.996V565.829M-13.8204 521.996H24.9105M-13.8204 565.829V609.663M-13.8204 565.829H24.9105M-13.8204 609.663V653.497M-13.8204 609.663H24.9105M-13.8204 653.497V697.331M-13.8204 653.497H24.9105M-13.8204 697.331V741.164M-13.8204 697.331H24.9105M-13.8204 741.164H24.9105M24.9105 -91.6766V-47.8429M24.9105 -91.6766H63.6413M24.9105 -47.8429V-4.00912M24.9105 -47.8429H63.6413M24.9105 -4.00912V39.8246M24.9105 -4.00912H63.6413M24.9105 39.8246V83.6583M24.9105 39.8246H63.6413M24.9105 83.6583V127.492M24.9105 83.6583H63.6413M24.9105 127.492V171.326M24.9105 127.492H63.6413M24.9105 171.326V215.16M24.9105 171.326H63.6413M24.9105 215.16V258.993M24.9105 215.16H63.6413M24.9105 258.993V302.827M24.9105 258.993H63.6413M24.9105 302.827V346.661M24.9105 302.827H63.6413M24.9105 346.661V390.495M24.9105 346.661H63.6413M24.9105 390.495V434.328M24.9105 390.495H63.6413M24.9105 434.328V478.162M24.9105 434.328H63.6413M24.9105 478.162V521.996M24.9105 478.162H63.6413M24.9105 521.996V565.829M24.9105 521.996H63.6413M24.9105 565.829V609.663M24.9105 565.829H63.6413M24.9105 609.663V653.497M24.9105 609.663H63.6413M24.9105 653.497V697.331M24.9105 653.497H63.6413M24.9105 697.331V741.164M24.9105 697.331H63.6413M24.9105 741.164H63.6413M63.6413 -91.6766V-47.8429M63.6413 -91.6766H102.372M63.6413 -47.8429V-4.00912M63.6413 -47.8429H102.372M63.6413 -4.00912V39.8246M63.6413 -4.00912H102.372M63.6413 39.8246V83.6583M63.6413 39.8246H102.372M63.6413 83.6583V127.492M63.6413 83.6583H102.372M63.6413 127.492V171.326M63.6413 127.492H102.372M63.6413 171.326V215.16M63.6413 171.326H102.372M63.6413 215.16V258.993M63.6413 215.16H102.372M63.6413 258.993V302.827M63.6413 258.993H102.372M63.6413 302.827V346.661M63.6413 302.827H102.372M63.6413 346.661V390.495M63.6413 346.661H102.372M63.6413 390.495V434.328M63.6413 390.495H102.372M63.6413 434.328V478.162M63.6413 434.328H102.372M63.6413 478.162V521.996M63.6413 478.162H102.372M63.6413 521.996V565.829M63.6413 521.996H102.372M63.6413 565.829V609.663M63.6413 565.829H102.372M63.6413 609.663V653.497M63.6413 609.663H102.372M63.6413 653.497V697.331M63.6413 653.497H102.372M63.6413 697.331V741.164M63.6413 697.331H102.372M63.6413 741.164H102.372M102.372 -91.6766V-47.8429M102.372 -91.6766H141.103M102.372 -47.8429V-4.00912M102.372 -47.8429H141.103M102.372 -4.00912V39.8246M102.372 -4.00912H141.103M102.372 39.8246V83.6583M102.372 39.8246H141.103M102.372 83.6583V127.492M102.372 83.6583H141.103M102.372 127.492V171.326M102.372 127.492H141.103M102.372 171.326V215.16M102.372 171.326H141.103M102.372 215.16V258.993M102.372 215.16H141.103M102.372 258.993V302.827M102.372 258.993H141.103M102.372 302.827V346.661M102.372 302.827H141.103M102.372 346.661V390.495M102.372 346.661H141.103M102.372 390.495V434.328M102.372 390.495H141.103M102.372 434.328V478.162M102.372 434.328H141.103M102.372 478.162V521.996M102.372 478.162H141.103M102.372 521.996V565.829M102.372 521.996H141.103M102.372 565.829V609.663M102.372 565.829H141.103M102.372 609.663V653.497M102.372 609.663H141.103M102.372 653.497V697.331M102.372 653.497H141.103M102.372 697.331V741.164M102.372 697.331H141.103M102.372 741.164H141.103M141.103 -91.6766V-47.8429M141.103 -91.6766H179.834M141.103 -47.8429V-4.00912M141.103 -47.8429H179.834M141.103 -4.00912V39.8246M141.103 -4.00912H179.834M141.103 39.8246V83.6583M141.103 39.8246H179.834M141.103 83.6583V127.492M141.103 83.6583H179.834M141.103 127.492V171.326M141.103 127.492H179.834M141.103 171.326V215.16M141.103 171.326H179.834M141.103 215.16V258.993M141.103 215.16H179.834M141.103 258.993V302.827M141.103 258.993H179.834M141.103 302.827V346.661M141.103 302.827H179.834M141.103 346.661V390.495M141.103 346.661H179.834M141.103 390.495V434.328M141.103 390.495H179.834M141.103 434.328V478.162M141.103 434.328H179.834M141.103 478.162V521.996M141.103 478.162H179.834M141.103 521.996V565.829M141.103 521.996H179.834M141.103 565.829V609.663M141.103 565.829H179.834M141.103 609.663V653.497M141.103 609.663H179.834M141.103 653.497V697.331M141.103 653.497H179.834M141.103 697.331V741.164M141.103 697.331H179.834M141.103 741.164H179.834M179.834 -91.6766V-47.8429M179.834 -91.6766H218.565M179.834 -47.8429V-4.00912M179.834 -47.8429H218.565M179.834 -4.00912V39.8246M179.834 -4.00912H218.565M179.834 39.8246V83.6583M179.834 39.8246H218.565M179.834 83.6583V127.492M179.834 83.6583H218.565M179.834 127.492V171.326M179.834 127.492H218.565M179.834 171.326V215.16M179.834 171.326H218.565M179.834 215.16V258.993M179.834 215.16H218.565M179.834 258.993V302.827M179.834 258.993H218.565M179.834 302.827V346.661M179.834 302.827H218.565M179.834 346.661V390.495M179.834 346.661H218.565M179.834 390.495V434.328M179.834 390.495H218.565M179.834 434.328V478.162M179.834 434.328H218.565M179.834 478.162V521.996M179.834 478.162H218.565M179.834 521.996V565.829M179.834 521.996H218.565M179.834 565.829V609.663M179.834 565.829H218.565M179.834 609.663V653.497M179.834 609.663H218.565M179.834 653.497V697.331M179.834 653.497H218.565M179.834 697.331V741.164M179.834 697.331H218.565M179.834 741.164H218.565M218.565 -91.6766V-47.8429M218.565 -91.6766H257.296M218.565 -47.8429V-4.00912M218.565 -47.8429H257.296M218.565 -4.00912V39.8246M218.565 -4.00912H257.296M218.565 39.8246V83.6583M218.565 39.8246H257.296M218.565 83.6583V127.492M218.565 83.6583H257.296M218.565 127.492V171.326M218.565 127.492H257.296M218.565 171.326V215.16M218.565 171.326H257.296M218.565 215.16V258.993M218.565 215.16H257.296M218.565 258.993V302.827M218.565 258.993H257.296M218.565 302.827V346.661M218.565 302.827H257.296M218.565 346.661V390.495M218.565 346.661H257.296M218.565 390.495V434.328M218.565 390.495H257.296M218.565 434.328V478.162M218.565 434.328H257.296M218.565 478.162V521.996M218.565 478.162H257.296M218.565 521.996V565.829M218.565 521.996H257.296M218.565 565.829V609.663M218.565 565.829H257.296M218.565 609.663V653.497M218.565 609.663H257.296M218.565 653.497V697.331M218.565 653.497H257.296M218.565 697.331V741.164M218.565 697.331H257.296M218.565 741.164H257.296M257.296 -91.6766V-47.8429M257.296 -91.6766H296.027M257.296 -47.8429V-4.00912M257.296 -47.8429H296.027M257.296 -4.00912V39.8246M257.296 -4.00912H296.027M257.296 39.8246V83.6583M257.296 39.8246H296.027M257.296 83.6583V127.492M257.296 83.6583H296.027M257.296 127.492V171.326M257.296 127.492H296.027M257.296 171.326V215.16M257.296 171.326H296.027M257.296 215.16V258.993M257.296 215.16H296.027M257.296 258.993V302.827M257.296 258.993H296.027M257.296 302.827V346.661M257.296 302.827H296.027M257.296 346.661V390.495M257.296 346.661H296.027M257.296 390.495V434.328M257.296 390.495H296.027M257.296 434.328V478.162M257.296 434.328H296.027M257.296 478.162V521.996M257.296 478.162H296.027M257.296 521.996V565.829M257.296 521.996H296.027M257.296 565.829V609.663M257.296 565.829H296.027M257.296 609.663V653.497M257.296 609.663H296.027M257.296 653.497V697.331M257.296 653.497H296.027M257.296 697.331V741.164M257.296 697.331H296.027M257.296 741.164H296.027M296.027 -91.6766V-47.8429M296.027 -91.6766H334.757M296.027 -47.8429V-4.00912M296.027 -47.8429H334.757M296.027 -4.00912V39.8246M296.027 -4.00912H334.757M296.027 39.8246V83.6583M296.027 39.8246H334.757M296.027 83.6583V127.492M296.027 83.6583H334.757M296.027 127.492V171.326M296.027 127.492H334.757M296.027 171.326V215.16M296.027 171.326H334.757M296.027 215.16V258.993M296.027 215.16H334.757M296.027 258.993V302.827M296.027 258.993H334.757M296.027 302.827V346.661M296.027 302.827H334.757M296.027 346.661V390.495M296.027 346.661H334.757M296.027 390.495V434.328M296.027 390.495H334.757M296.027 434.328V478.162M296.027 434.328H334.757M296.027 478.162V521.996M296.027 478.162H334.757M296.027 521.996V565.829M296.027 521.996H334.757M296.027 565.829V609.663M296.027 565.829H334.757M296.027 609.663V653.497M296.027 609.663H334.757M296.027 653.497V697.331M296.027 653.497H334.757M296.027 697.331V741.164M296.027 697.331H334.757M296.027 741.164H334.757M334.757 -91.6766V-47.8429M334.757 -91.6766H373.488M334.757 -47.8429V-4.00912M334.757 -47.8429H373.488M334.757 -4.00912V39.8246M334.757 -4.00912H373.488M334.757 39.8246V83.6583M334.757 39.8246H373.488M334.757 83.6583V127.492M334.757 83.6583H373.488M334.757 127.492V171.326M334.757 127.492H373.488M334.757 171.326V215.16M334.757 171.326H373.488M334.757 215.16V258.993M334.757 215.16H373.488M334.757 258.993V302.827M334.757 258.993H373.488M334.757 302.827V346.661M334.757 302.827H373.488M334.757 346.661V390.495M334.757 346.661H373.488M334.757 390.495V434.328M334.757 390.495H373.488M334.757 434.328V478.162M334.757 434.328H373.488M334.757 478.162V521.996M334.757 478.162H373.488M334.757 521.996V565.829M334.757 521.996H373.488M334.757 565.829V609.663M334.757 565.829H373.488M334.757 609.663V653.497M334.757 609.663H373.488M334.757 653.497V697.331M334.757 653.497H373.488M334.757 697.331V741.164M334.757 697.331H373.488M334.757 741.164H373.488M373.488 -91.6766V-47.8429M373.488 -91.6766H412.219M373.488 -47.8429V-4.00912M373.488 -47.8429H412.219M373.488 -4.00912V39.8246M373.488 -4.00912H412.219M373.488 39.8246V83.6583M373.488 39.8246H412.219M373.488 83.6583V127.492M373.488 83.6583H412.219M373.488 127.492V171.326M373.488 127.492H412.219M373.488 171.326V215.16M373.488 171.326H412.219M373.488 215.16V258.993M373.488 215.16H412.219M373.488 258.993V302.827M373.488 258.993H412.219M373.488 302.827V346.661M373.488 302.827H412.219M373.488 346.661V390.495M373.488 346.661H412.219M373.488 390.495V434.328M373.488 390.495H412.219M373.488 434.328V478.162M373.488 434.328H412.219M373.488 478.162V521.996M373.488 478.162H412.219M373.488 521.996V565.829M373.488 521.996H412.219M373.488 565.829V609.663M373.488 565.829H412.219M373.488 609.663V653.497M373.488 609.663H412.219M373.488 653.497V697.331M373.488 653.497H412.219M373.488 697.331V741.164M373.488 697.331H412.219M373.488 741.164H412.219M412.219 -91.6766V-47.8429M412.219 -91.6766H450.95M412.219 -47.8429V-4.00912M412.219 -47.8429H450.95M412.219 -4.00912V39.8246M412.219 -4.00912H450.95M412.219 39.8246V83.6583M412.219 39.8246H450.95M412.219 83.6583V127.492M412.219 83.6583H450.95M412.219 127.492V171.326M412.219 127.492H450.95M412.219 171.326V215.16M412.219 171.326H450.95M412.219 215.16V258.993M412.219 215.16H450.95M412.219 258.993V302.827M412.219 258.993H450.95M412.219 302.827V346.661M412.219 302.827H450.95M412.219 346.661V390.495M412.219 346.661H450.95M412.219 390.495V434.328M412.219 390.495H450.95M412.219 434.328V478.162M412.219 434.328H450.95M412.219 478.162V521.996M412.219 478.162H450.95M412.219 521.996V565.829M412.219 521.996H450.95M412.219 565.829V609.663M412.219 565.829H450.95M412.219 609.663V653.497M412.219 609.663H450.95M412.219 653.497V697.331M412.219 653.497H450.95M412.219 697.331V741.164M412.219 697.331H450.95M412.219 741.164H450.95M450.95 -91.6766V-47.8429M450.95 -91.6766H489.681M450.95 -47.8429V-4.00912M450.95 -47.8429H489.681M450.95 -4.00912V39.8246M450.95 -4.00912H489.681M450.95 39.8246V83.6583M450.95 39.8246H489.681M450.95 83.6583V127.492M450.95 83.6583H489.681M450.95 127.492V171.326M450.95 127.492H489.681M450.95 171.326V215.16M450.95 171.326H489.681M450.95 215.16V258.993M450.95 215.16H489.681M450.95 258.993V302.827M450.95 258.993H489.681M450.95 302.827V346.661M450.95 302.827H489.681M450.95 346.661V390.495M450.95 346.661H489.681M450.95 390.495V434.328M450.95 390.495H489.681M450.95 434.328V478.162M450.95 434.328H489.681M450.95 478.162V521.996M450.95 478.162H489.681M450.95 521.996V565.829M450.95 521.996H489.681M450.95 565.829V609.663M450.95 565.829H489.681M450.95 609.663V653.497M450.95 609.663H489.681M450.95 653.497V697.331M450.95 653.497H489.681M450.95 697.331V741.164M450.95 697.331H489.681M450.95 741.164H489.681M489.681 -91.6766V-47.8429M489.681 -91.6766H528.412M489.681 -47.8429V-4.00912M489.681 -47.8429H528.412M489.681 -4.00912V39.8246M489.681 -4.00912H528.412M489.681 39.8246V83.6583M489.681 39.8246H528.412M489.681 83.6583V127.492M489.681 83.6583H528.412M489.681 127.492V171.326M489.681 127.492H528.412M489.681 171.326V215.16M489.681 171.326H528.412M489.681 215.16V258.993M489.681 215.16H528.412M489.681 258.993V302.827M489.681 258.993H528.412M489.681 302.827V346.661M489.681 302.827H528.412M489.681 346.661V390.495M489.681 346.661H528.412M489.681 390.495V434.328M489.681 390.495H528.412M489.681 434.328V478.162M489.681 434.328H528.412M489.681 478.162V521.996M489.681 478.162H528.412M489.681 521.996V565.829M489.681 521.996H528.412M489.681 565.829V609.663M489.681 565.829H528.412M489.681 609.663V653.497M489.681 609.663H528.412M489.681 653.497V697.331M489.681 653.497H528.412M489.681 697.331V741.164M489.681 697.331H528.412M489.681 741.164H528.412M528.412 -91.6766V-47.8429M528.412 -91.6766H567.143M528.412 -47.8429V-4.00912M528.412 -47.8429H567.143M528.412 -4.00912V39.8246M528.412 -4.00912H567.143M528.412 39.8246V83.6583M528.412 39.8246H567.143M528.412 83.6583V127.492M528.412 83.6583H567.143M528.412 127.492V171.326M528.412 127.492H567.143M528.412 171.326V215.16M528.412 171.326H567.143M528.412 215.16V258.993M528.412 215.16H567.143M528.412 258.993V302.827M528.412 258.993H567.143M528.412 302.827V346.661M528.412 302.827H567.143M528.412 346.661V390.495M528.412 346.661H567.143M528.412 390.495V434.328M528.412 390.495H567.143M528.412 434.328V478.162M528.412 434.328H567.143M528.412 478.162V521.996M528.412 478.162H567.143M528.412 521.996V565.829M528.412 521.996H567.143M528.412 565.829V609.663M528.412 565.829H567.143M528.412 609.663V653.497M528.412 609.663H567.143M528.412 653.497V697.331M528.412 653.497H567.143M528.412 697.331V741.164M528.412 697.331H567.143M528.412 741.164H567.143M567.143 -91.6766V-47.8429M567.143 -91.6766H605.873M567.143 -47.8429V-4.00912M567.143 -47.8429H605.873M567.143 -4.00912V39.8246M567.143 -4.00912H605.873M567.143 39.8246V83.6583M567.143 39.8246H605.873M567.143 83.6583V127.492M567.143 83.6583H605.873M567.143 127.492V171.326M567.143 127.492H605.873M567.143 171.326V215.16M567.143 171.326H605.873M567.143 215.16V258.993M567.143 215.16H605.873M567.143 258.993V302.827M567.143 258.993H605.873M567.143 302.827V346.661M567.143 302.827H605.873M567.143 346.661V390.495M567.143 346.661H605.873M567.143 390.495V434.328M567.143 390.495H605.873M567.143 434.328V478.162M567.143 434.328H605.873M567.143 478.162V521.996M567.143 478.162H605.873M567.143 521.996V565.829M567.143 521.996H605.873M567.143 565.829V609.663M567.143 565.829H605.873M567.143 609.663V653.497M567.143 609.663H605.873M567.143 653.497V697.331M567.143 653.497H605.873M567.143 697.331V741.164M567.143 697.331H605.873M567.143 741.164H605.873M605.873 -91.6766V-47.8429M605.873 -91.6766H644.604M605.873 -47.8429V-4.00912M605.873 -47.8429H644.604M605.873 -4.00912V39.8246M605.873 -4.00912H644.604M605.873 39.8246V83.6583M605.873 39.8246H644.604M605.873 83.6583V127.492M605.873 83.6583H644.604M605.873 127.492V171.326M605.873 127.492H644.604M605.873 171.326V215.16M605.873 171.326H644.604M605.873 215.16V258.993M605.873 215.16H644.604M605.873 258.993V302.827M605.873 258.993H644.604M605.873 302.827V346.661M605.873 302.827H644.604M605.873 346.661V390.495M605.873 346.661H644.604M605.873 390.495V434.328M605.873 390.495H644.604M605.873 434.328V478.162M605.873 434.328H644.604M605.873 478.162V521.996M605.873 478.162H644.604M605.873 521.996V565.829M605.873 521.996H644.604M605.873 565.829V609.663M605.873 565.829H644.604M605.873 609.663V653.497M605.873 609.663H644.604M605.873 653.497V697.331M605.873 653.497H644.604M605.873 697.331V741.164M605.873 697.331H644.604M605.873 741.164H644.604M644.604 -91.6766V-47.8429M644.604 -91.6766H683.335M644.604 -47.8429V-4.00912M644.604 -47.8429H683.335M644.604 -4.00912V39.8246M644.604 -4.00912H683.335M644.604 39.8246V83.6583M644.604 39.8246H683.335M644.604 83.6583V127.492M644.604 83.6583H683.335M644.604 127.492V171.326M644.604 127.492H683.335M644.604 171.326V215.16M644.604 171.326H683.335M644.604 215.16V258.993M644.604 215.16H683.335M644.604 258.993V302.827M644.604 258.993H683.335M644.604 302.827V346.661M644.604 302.827H683.335M644.604 346.661V390.495M644.604 346.661H683.335M644.604 390.495V434.328M644.604 390.495H683.335M644.604 434.328V478.162M644.604 434.328H683.335M644.604 478.162V521.996M644.604 478.162H683.335M644.604 521.996V565.829M644.604 521.996H683.335M644.604 565.829V609.663M644.604 565.829H683.335M644.604 609.663V653.497M644.604 609.663H683.335M644.604 653.497V697.331M644.604 653.497H683.335M644.604 697.331V741.164M644.604 697.331H683.335M644.604 741.164H683.335M683.335 -91.6766V-47.8429M683.335 -91.6766H722.066M683.335 -47.8429V-4.00912M683.335 -47.8429H722.066M683.335 -4.00912V39.8246M683.335 -4.00912H722.066M683.335 39.8246V83.6583M683.335 39.8246H722.066M683.335 83.6583V127.492M683.335 83.6583H722.066M683.335 127.492V171.326M683.335 127.492H722.066M683.335 171.326V215.16M683.335 171.326H722.066M683.335 215.16V258.993M683.335 215.16H722.066M683.335 258.993V302.827M683.335 258.993H722.066M683.335 302.827V346.661M683.335 302.827H722.066M683.335 346.661V390.495M683.335 346.661H722.066M683.335 390.495V434.328M683.335 390.495H722.066M683.335 434.328V478.162M683.335 434.328H722.066M683.335 478.162V521.996M683.335 478.162H722.066M683.335 521.996V565.829M683.335 521.996H722.066M683.335 565.829V609.663M683.335 565.829H722.066M683.335 609.663V653.497M683.335 609.663H722.066M683.335 653.497V697.331M683.335 653.497H722.066M683.335 697.331V741.164M683.335 697.331H722.066M683.335 741.164H722.066M722.066 -91.6766V-47.8429M722.066 -91.6766H760.797M722.066 -47.8429V-4.00912M722.066 -47.8429H760.797M722.066 -4.00912V39.8246M722.066 -4.00912H760.797M722.066 39.8246V83.6583M722.066 39.8246H760.797M722.066 83.6583V127.492M722.066 83.6583H760.797M722.066 127.492V171.326M722.066 127.492H760.797M722.066 171.326V215.16M722.066 171.326H760.797M722.066 215.16V258.993M722.066 215.16H760.797M722.066 258.993V302.827M722.066 258.993H760.797M722.066 302.827V346.661M722.066 302.827H760.797M722.066 346.661V390.495M722.066 346.661H760.797M722.066 390.495V434.328M722.066 390.495H760.797M722.066 434.328V478.162M722.066 434.328H760.797M722.066 478.162V521.996M722.066 478.162H760.797M722.066 521.996V565.829M722.066 521.996H760.797M722.066 565.829V609.663M722.066 565.829H760.797M722.066 609.663V653.497M722.066 609.663H760.797M722.066 653.497V697.331M722.066 653.497H760.797M722.066 697.331V741.164M722.066 697.331H760.797M722.066 741.164H760.797M760.797 -91.6766V-47.8429M760.797 -91.6766H799.528M760.797 -47.8429V-4.00912M760.797 -47.8429H799.528M760.797 -4.00912V39.8246M760.797 -4.00912H799.528M760.797 39.8246V83.6583M760.797 39.8246H799.528M760.797 83.6583V127.492M760.797 83.6583H799.528M760.797 127.492V171.326M760.797 127.492H799.528M760.797 171.326V215.16M760.797 171.326H799.528M760.797 215.16V258.993M760.797 215.16H799.528M760.797 258.993V302.827M760.797 258.993H799.528M760.797 302.827V346.661M760.797 302.827H799.528M760.797 346.661V390.495M760.797 346.661H799.528M760.797 390.495V434.328M760.797 390.495H799.528M760.797 434.328V478.162M760.797 434.328H799.528M760.797 478.162V521.996M760.797 478.162H799.528M760.797 521.996V565.829M760.797 521.996H799.528M760.797 565.829V609.663M760.797 565.829H799.528M760.797 609.663V653.497M760.797 609.663H799.528M760.797 653.497V697.331M760.797 653.497H799.528M760.797 697.331V741.164M760.797 697.331H799.528M760.797 741.164H799.528M799.528 -91.6766V-47.8429M799.528 -91.6766H838.259M799.528 -47.8429V-4.00912M799.528 -47.8429H838.259M799.528 -4.00912V39.8246M799.528 -4.00912H838.259M799.528 39.8246V83.6583M799.528 39.8246H838.259M799.528 83.6583V127.492M799.528 83.6583H838.259M799.528 127.492V171.326M799.528 127.492H838.259M799.528 171.326V215.16M799.528 171.326H838.259M799.528 215.16V258.993M799.528 215.16H838.259M799.528 258.993V302.827M799.528 258.993H838.259M799.528 302.827V346.661M799.528 302.827H838.259M799.528 346.661V390.495M799.528 346.661H838.259M799.528 390.495V434.328M799.528 390.495H838.259M799.528 434.328V478.162M799.528 434.328H838.259M799.528 478.162V521.996M799.528 478.162H838.259M799.528 521.996V565.829M799.528 521.996H838.259M799.528 565.829V609.663M799.528 565.829H838.259M799.528 609.663V653.497M799.528 609.663H838.259M799.528 653.497V697.331M799.528 653.497H838.259M799.528 697.331V741.164M799.528 697.331H838.259M799.528 741.164H838.259M838.259 -91.6766V-47.8429M838.259 -91.6766H876.99M838.259 -47.8429V-4.00912M838.259 -47.8429H876.99M838.259 -4.00912V39.8246M838.259 -4.00912H876.99M838.259 39.8246V83.6583M838.259 39.8246H876.99M838.259 83.6583V127.492M838.259 83.6583H876.99M838.259 127.492V171.326M838.259 127.492H876.99M838.259 171.326V215.16M838.259 171.326H876.99M838.259 215.16V258.993M838.259 215.16H876.99M838.259 258.993V302.827M838.259 258.993H876.99M838.259 302.827V346.661M838.259 302.827H876.99M838.259 346.661V390.495M838.259 346.661H876.99M838.259 390.495V434.328M838.259 390.495H876.99M838.259 434.328V478.162M838.259 434.328H876.99M838.259 478.162V521.996M838.259 478.162H876.99M838.259 521.996V565.829M838.259 521.996H876.99M838.259 565.829V609.663M838.259 565.829H876.99M838.259 609.663V653.497M838.259 609.663H876.99M838.259 653.497V697.331M838.259 653.497H876.99M838.259 697.331V741.164M838.259 697.331H876.99M838.259 741.164H876.99M876.99 -91.6766V-47.8429M876.99 -91.6766H915.72M876.99 -47.8429V-4.00912M876.99 -47.8429H915.72M876.99 -4.00912V39.8246M876.99 -4.00912H915.72M876.99 39.8246V83.6583M876.99 39.8246H915.72M876.99 83.6583V127.492M876.99 83.6583H915.72M876.99 127.492V171.326M876.99 127.492H915.72M876.99 171.326V215.16M876.99 171.326H915.72M876.99 215.16V258.993M876.99 215.16H915.72M876.99 258.993V302.827M876.99 258.993H915.72M876.99 302.827V346.661M876.99 302.827H915.72M876.99 346.661V390.495M876.99 346.661H915.72M876.99 390.495V434.328M876.99 390.495H915.72M876.99 434.328V478.162M876.99 434.328H915.72M876.99 478.162V521.996M876.99 478.162H915.72M876.99 521.996V565.829M876.99 521.996H915.72M876.99 565.829V609.663M876.99 565.829H915.72M876.99 609.663V653.497M876.99 609.663H915.72M876.99 653.497V697.331M876.99 653.497H915.72M876.99 697.331V741.164M876.99 697.331H915.72M876.99 741.164H915.72M915.72 -91.6766V-47.8429M915.72 -91.6766H954.451M915.72 -47.8429V-4.00912M915.72 -47.8429H954.451M915.72 -4.00912V39.8246M915.72 -4.00912H954.451M915.72 39.8246V83.6583M915.72 39.8246H954.451M915.72 83.6583V127.492M915.72 83.6583H954.451M915.72 127.492V171.326M915.72 127.492H954.451M915.72 171.326V215.16M915.72 171.326H954.451M915.72 215.16V258.993M915.72 215.16H954.451M915.72 258.993V302.827M915.72 258.993H954.451M915.72 302.827V346.661M915.72 302.827H954.451M915.72 346.661V390.495M915.72 346.661H954.451M915.72 390.495V434.328M915.72 390.495H954.451M915.72 434.328V478.162M915.72 434.328H954.451M915.72 478.162V521.996M915.72 478.162H954.451M915.72 521.996V565.829M915.72 521.996H954.451M915.72 565.829V609.663M915.72 565.829H954.451M915.72 609.663V653.497M915.72 609.663H954.451M915.72 653.497V697.331M915.72 653.497H954.451M915.72 697.331V741.164M915.72 697.331H954.451M915.72 741.164H954.451M954.451 -91.6766V-47.8429M954.451 -91.6766H993.182M954.451 -47.8429V-4.00912M954.451 -47.8429H993.182M954.451 -4.00912V39.8246M954.451 -4.00912H993.182M954.451 39.8246V83.6583M954.451 39.8246H993.182M954.451 83.6583V127.492M954.451 83.6583H993.182M954.451 127.492V171.326M954.451 127.492H993.182M954.451 171.326V215.16M954.451 171.326H993.182M954.451 215.16V258.993M954.451 215.16H993.182M954.451 258.993V302.827M954.451 258.993H993.182M954.451 302.827V346.661M954.451 302.827H993.182M954.451 346.661V390.495M954.451 346.661H993.182M954.451 390.495V434.328M954.451 390.495H993.182M954.451 434.328V478.162M954.451 434.328H993.182M954.451 478.162V521.996M954.451 478.162H993.182M954.451 521.996V565.829M954.451 521.996H993.182M954.451 565.829V609.663M954.451 565.829H993.182M954.451 609.663V653.497M954.451 609.663H993.182M954.451 653.497V697.331M954.451 653.497H993.182M954.451 697.331V741.164M954.451 697.331H993.182M954.451 741.164H993.182M993.182 -91.6766V-47.8429M993.182 -91.6766H1031.91M993.182 -47.8429V-4.00912M993.182 -47.8429H1031.91M993.182 -4.00912V39.8246M993.182 -4.00912H1031.91M993.182 39.8246V83.6583M993.182 39.8246H1031.91M993.182 83.6583V127.492M993.182 83.6583H1031.91M993.182 127.492V171.326M993.182 127.492H1031.91M993.182 171.326V215.16M993.182 171.326H1031.91M993.182 215.16V258.993M993.182 215.16H1031.91M993.182 258.993V302.827M993.182 258.993H1031.91M993.182 302.827V346.661M993.182 302.827H1031.91M993.182 346.661V390.495M993.182 346.661H1031.91M993.182 390.495V434.328M993.182 390.495H1031.91M993.182 434.328V478.162M993.182 434.328H1031.91M993.182 478.162V521.996M993.182 478.162H1031.91M993.182 521.996V565.829M993.182 521.996H1031.91M993.182 565.829V609.663M993.182 565.829H1031.91M993.182 609.663V653.497M993.182 609.663H1031.91M993.182 653.497V697.331M993.182 653.497H1031.91M993.182 697.331V741.164M993.182 697.331H1031.91M993.182 741.164H1031.91M1031.91 -91.6766V-47.8429M1031.91 -91.6766H1070.64M1031.91 -47.8429V-4.00912M1031.91 -47.8429H1070.64M1031.91 -4.00912V39.8246M1031.91 -4.00912H1070.64M1031.91 39.8246V83.6583M1031.91 39.8246H1070.64M1031.91 83.6583V127.492M1031.91 83.6583H1070.64M1031.91 127.492V171.326M1031.91 127.492H1070.64M1031.91 171.326V215.16M1031.91 171.326H1070.64M1031.91 215.16V258.993M1031.91 215.16H1070.64M1031.91 258.993V302.827M1031.91 258.993H1070.64M1031.91 302.827V346.661M1031.91 302.827H1070.64M1031.91 346.661V390.495M1031.91 346.661H1070.64M1031.91 390.495V434.328M1031.91 390.495H1070.64M1031.91 434.328V478.162M1031.91 434.328H1070.64M1031.91 478.162V521.996M1031.91 478.162H1070.64M1031.91 521.996V565.829M1031.91 521.996H1070.64M1031.91 565.829V609.663M1031.91 565.829H1070.64M1031.91 609.663V653.497M1031.91 609.663H1070.64M1031.91 653.497V697.331M1031.91 653.497H1070.64M1031.91 697.331V741.164M1031.91 697.331H1070.64M1031.91 741.164H1070.64M1070.64 -91.6766V-47.8429M1070.64 -91.6766H1109.37M1070.64 -47.8429V-4.00912M1070.64 -47.8429H1109.37M1070.64 -4.00912V39.8246M1070.64 -4.00912H1109.37M1070.64 39.8246V83.6583M1070.64 39.8246H1109.37M1070.64 83.6583V127.492M1070.64 83.6583H1109.37M1070.64 127.492V171.326M1070.64 127.492H1109.37M1070.64 171.326V215.16M1070.64 171.326H1109.37M1070.64 215.16V258.993M1070.64 215.16H1109.37M1070.64 258.993V302.827M1070.64 258.993H1109.37M1070.64 302.827V346.661M1070.64 302.827H1109.37M1070.64 346.661V390.495M1070.64 346.661H1109.37M1070.64 390.495V434.328M1070.64 390.495H1109.37M1070.64 434.328V478.162M1070.64 434.328H1109.37M1070.64 478.162V521.996M1070.64 478.162H1109.37M1070.64 521.996V565.829M1070.64 521.996H1109.37M1070.64 565.829V609.663M1070.64 565.829H1109.37M1070.64 609.663V653.497M1070.64 609.663H1109.37M1070.64 653.497V697.331M1070.64 653.497H1109.37M1070.64 697.331V741.164M1070.64 697.331H1109.37M1070.64 741.164H1109.37M1109.37 -91.6766V-47.8429M1109.37 -91.6766H1148.11M1109.37 -47.8429V-4.00912M1109.37 -47.8429H1148.11M1109.37 -4.00912V39.8246M1109.37 -4.00912H1148.11M1109.37 39.8246V83.6583M1109.37 39.8246H1148.11M1109.37 83.6583V127.492M1109.37 83.6583H1148.11M1109.37 127.492V171.326M1109.37 127.492H1148.11M1109.37 171.326V215.16M1109.37 171.326H1148.11M1109.37 215.16V258.993M1109.37 215.16H1148.11M1109.37 258.993V302.827M1109.37 258.993H1148.11M1109.37 302.827V346.661M1109.37 302.827H1148.11M1109.37 346.661V390.495M1109.37 346.661H1148.11M1109.37 390.495V434.328M1109.37 390.495H1148.11M1109.37 434.328V478.162M1109.37 434.328H1148.11M1109.37 478.162V521.996M1109.37 478.162H1148.11M1109.37 521.996V565.829M1109.37 521.996H1148.11M1109.37 565.829V609.663M1109.37 565.829H1148.11M1109.37 609.663V653.497M1109.37 609.663H1148.11M1109.37 653.497V697.331M1109.37 653.497H1148.11M1109.37 697.331V741.164M1109.37 697.331H1148.11M1109.37 741.164H1148.11M1148.11 -91.6766V-47.8429M1148.11 -91.6766H1186.84M1148.11 -47.8429V-4.00912M1148.11 -47.8429H1186.84M1148.11 -4.00912V39.8246M1148.11 -4.00912H1186.84M1148.11 39.8246V83.6583M1148.11 39.8246H1186.84M1148.11 83.6583V127.492M1148.11 83.6583H1186.84M1148.11 127.492V171.326M1148.11 127.492H1186.84M1148.11 171.326V215.16M1148.11 171.326H1186.84M1148.11 215.16V258.993M1148.11 215.16H1186.84M1148.11 258.993V302.827M1148.11 258.993H1186.84M1148.11 302.827V346.661M1148.11 302.827H1186.84M1148.11 346.661V390.495M1148.11 346.661H1186.84M1148.11 390.495V434.328M1148.11 390.495H1186.84M1148.11 434.328V478.162M1148.11 434.328H1186.84M1148.11 478.162V521.996M1148.11 478.162H1186.84M1148.11 521.996V565.829M1148.11 521.996H1186.84M1148.11 565.829V609.663M1148.11 565.829H1186.84M1148.11 609.663V653.497M1148.11 609.663H1186.84M1148.11 653.497V697.331M1148.11 653.497H1186.84M1148.11 697.331V741.164M1148.11 697.331H1186.84M1148.11 741.164H1186.84M1186.84 -91.6766V-47.8429M1186.84 -91.6766H1225.57M1186.84 -47.8429V-4.00912M1186.84 -47.8429H1225.57M1186.84 -4.00912V39.8246M1186.84 -4.00912H1225.57M1186.84 39.8246V83.6583M1186.84 39.8246H1225.57M1186.84 83.6583V127.492M1186.84 83.6583H1225.57M1186.84 127.492V171.326M1186.84 127.492H1225.57M1186.84 171.326V215.16M1186.84 171.326H1225.57M1186.84 215.16V258.993M1186.84 215.16H1225.57M1186.84 258.993V302.827M1186.84 258.993H1225.57M1186.84 302.827V346.661M1186.84 302.827H1225.57M1186.84 346.661V390.495M1186.84 346.661H1225.57M1186.84 390.495V434.328M1186.84 390.495H1225.57M1186.84 434.328V478.162M1186.84 434.328H1225.57M1186.84 478.162V521.996M1186.84 478.162H1225.57M1186.84 521.996V565.829M1186.84 521.996H1225.57M1186.84 565.829V609.663M1186.84 565.829H1225.57M1186.84 609.663V653.497M1186.84 609.663H1225.57M1186.84 653.497V697.331M1186.84 653.497H1225.57M1186.84 697.331V741.164M1186.84 697.331H1225.57M1186.84 741.164H1225.57M1225.57 -91.6766V-47.8429M1225.57 -91.6766H1264.3M1225.57 -47.8429V-4.00912M1225.57 -47.8429H1264.3M1225.57 -4.00912V39.8246M1225.57 -4.00912H1264.3M1225.57 39.8246V83.6583M1225.57 39.8246H1264.3M1225.57 83.6583V127.492M1225.57 83.6583H1264.3M1225.57 127.492V171.326M1225.57 127.492H1264.3M1225.57 171.326V215.16M1225.57 171.326H1264.3M1225.57 215.16V258.993M1225.57 215.16H1264.3M1225.57 258.993V302.827M1225.57 258.993H1264.3M1225.57 302.827V346.661M1225.57 302.827H1264.3M1225.57 346.661V390.495M1225.57 346.661H1264.3M1225.57 390.495V434.328M1225.57 390.495H1264.3M1225.57 434.328V478.162M1225.57 434.328H1264.3M1225.57 478.162V521.996M1225.57 478.162H1264.3M1225.57 521.996V565.829M1225.57 521.996H1264.3M1225.57 565.829V609.663M1225.57 565.829H1264.3M1225.57 609.663V653.497M1225.57 609.663H1264.3M1225.57 653.497V697.331M1225.57 653.497H1264.3M1225.57 697.331V741.164M1225.57 697.331H1264.3M1225.57 741.164H1264.3M1264.3 -91.6766V-47.8429M1264.3 -91.6766H1303.03M1264.3 -47.8429V-4.00912M1264.3 -47.8429H1303.03M1264.3 -4.00912V39.8246M1264.3 -4.00912H1303.03M1264.3 39.8246V83.6583M1264.3 39.8246H1303.03M1264.3 83.6583V127.492M1264.3 83.6583H1303.03M1264.3 127.492V171.326M1264.3 127.492H1303.03M1264.3 171.326V215.16M1264.3 171.326H1303.03M1264.3 215.16V258.993M1264.3 215.16H1303.03M1264.3 258.993V302.827M1264.3 258.993H1303.03M1264.3 302.827V346.661M1264.3 302.827H1303.03M1264.3 346.661V390.495M1264.3 346.661H1303.03M1264.3 390.495V434.328M1264.3 390.495H1303.03M1264.3 434.328V478.162M1264.3 434.328H1303.03M1264.3 478.162V521.996M1264.3 478.162H1303.03M1264.3 521.996V565.829M1264.3 521.996H1303.03M1264.3 565.829V609.663M1264.3 565.829H1303.03M1264.3 609.663V653.497M1264.3 609.663H1303.03M1264.3 653.497V697.331M1264.3 653.497H1303.03M1264.3 697.331V741.164M1264.3 697.331H1303.03M1264.3 741.164H1303.03M1303.03 -91.6766V-47.8429M1303.03 -91.6766H1341.76M1303.03 -47.8429V-4.00912M1303.03 -47.8429H1341.76M1303.03 -4.00912V39.8246M1303.03 -4.00912H1341.76M1303.03 39.8246V83.6583M1303.03 39.8246H1341.76M1303.03 83.6583V127.492M1303.03 83.6583H1341.76M1303.03 127.492V171.326M1303.03 127.492H1341.76M1303.03 171.326V215.16M1303.03 171.326H1341.76M1303.03 215.16V258.993M1303.03 215.16H1341.76M1303.03 258.993V302.827M1303.03 258.993H1341.76M1303.03 302.827V346.661M1303.03 302.827H1341.76M1303.03 346.661V390.495M1303.03 346.661H1341.76M1303.03 390.495V434.328M1303.03 390.495H1341.76M1303.03 434.328V478.162M1303.03 434.328H1341.76M1303.03 478.162V521.996M1303.03 478.162H1341.76M1303.03 521.996V565.829M1303.03 521.996H1341.76M1303.03 565.829V609.663M1303.03 565.829H1341.76M1303.03 609.663V653.497M1303.03 609.663H1341.76M1303.03 653.497V697.331M1303.03 653.497H1341.76M1303.03 697.331V741.164M1303.03 697.331H1341.76M1303.03 741.164H1341.76M1341.76 -91.6766V-47.8429M1341.76 -91.6766H1380.49M1341.76 -47.8429V-4.00912M1341.76 -47.8429H1380.49M1341.76 -4.00912V39.8246M1341.76 -4.00912H1380.49M1341.76 39.8246V83.6583M1341.76 39.8246H1380.49M1341.76 83.6583V127.492M1341.76 83.6583H1380.49M1341.76 127.492V171.326M1341.76 127.492H1380.49M1341.76 171.326V215.16M1341.76 171.326H1380.49M1341.76 215.16V258.993M1341.76 215.16H1380.49M1341.76 258.993V302.827M1341.76 258.993H1380.49M1341.76 302.827V346.661M1341.76 302.827H1380.49M1341.76 346.661V390.495M1341.76 346.661H1380.49M1341.76 390.495V434.328M1341.76 390.495H1380.49M1341.76 434.328V478.162M1341.76 434.328H1380.49M1341.76 478.162V521.996M1341.76 478.162H1380.49M1341.76 521.996V565.829M1341.76 521.996H1380.49M1341.76 565.829V609.663M1341.76 565.829H1380.49M1341.76 609.663V653.497M1341.76 609.663H1380.49M1341.76 653.497V697.331M1341.76 653.497H1380.49M1341.76 697.331V741.164M1341.76 697.331H1380.49M1341.76 741.164H1380.49M1380.49 -91.6766V-47.8429M1380.49 -91.6766H1419.22M1380.49 -47.8429V-4.00912M1380.49 -47.8429H1419.22M1380.49 -4.00912V39.8246M1380.49 -4.00912H1419.22M1380.49 39.8246V83.6583M1380.49 39.8246H1419.22M1380.49 83.6583V127.492M1380.49 83.6583H1419.22M1380.49 127.492V171.326M1380.49 127.492H1419.22M1380.49 171.326V215.16M1380.49 171.326H1419.22M1380.49 215.16V258.993M1380.49 215.16H1419.22M1380.49 258.993V302.827M1380.49 258.993H1419.22M1380.49 302.827V346.661M1380.49 302.827H1419.22M1380.49 346.661V390.495M1380.49 346.661H1419.22M1380.49 390.495V434.328M1380.49 390.495H1419.22M1380.49 434.328V478.162M1380.49 434.328H1419.22M1380.49 478.162V521.996M1380.49 478.162H1419.22M1380.49 521.996V565.829M1380.49 521.996H1419.22M1380.49 565.829V609.663M1380.49 565.829H1419.22M1380.49 609.663V653.497M1380.49 609.663H1419.22M1380.49 653.497V697.331M1380.49 653.497H1419.22M1380.49 697.331V741.164M1380.49 697.331H1419.22M1380.49 741.164H1419.22M1419.22 -91.6766V-47.8429M1419.22 -91.6766H1457.95M1419.22 -47.8429V-4.00912M1419.22 -47.8429H1457.95M1419.22 -4.00912V39.8246M1419.22 -4.00912H1457.95M1419.22 39.8246V83.6583M1419.22 39.8246H1457.95M1419.22 83.6583V127.492M1419.22 83.6583H1457.95M1419.22 127.492V171.326M1419.22 127.492H1457.95M1419.22 171.326V215.16M1419.22 171.326H1457.95M1419.22 215.16V258.993M1419.22 215.16H1457.95M1419.22 258.993V302.827M1419.22 258.993H1457.95M1419.22 302.827V346.661M1419.22 302.827H1457.95M1419.22 346.661V390.495M1419.22 346.661H1457.95M1419.22 390.495V434.328M1419.22 390.495H1457.95M1419.22 434.328V478.162M1419.22 434.328H1457.95M1419.22 478.162V521.996M1419.22 478.162H1457.95M1419.22 521.996V565.829M1419.22 521.996H1457.95M1419.22 565.829V609.663M1419.22 565.829H1457.95M1419.22 609.663V653.497M1419.22 609.663H1457.95M1419.22 653.497V697.331M1419.22 653.497H1457.95M1419.22 697.331V741.164M1419.22 697.331H1457.95M1419.22 741.164H1457.95M1457.95 -91.6766V-47.8429M1457.95 -91.6766H1496.68V-47.8429M1457.95 -47.8429V-4.00912M1457.95 -47.8429H1496.68M1457.95 -4.00912V39.8246M1457.95 -4.00912H1496.68M1457.95 39.8246V83.6583M1457.95 39.8246H1496.68M1457.95 83.6583V127.492M1457.95 83.6583H1496.68M1457.95 127.492V171.326M1457.95 127.492H1496.68M1457.95 171.326V215.16M1457.95 171.326H1496.68M1457.95 215.16V258.993M1457.95 215.16H1496.68M1457.95 258.993V302.827M1457.95 258.993H1496.68M1457.95 302.827V346.661M1457.95 302.827H1496.68M1457.95 346.661V390.495M1457.95 346.661H1496.68M1457.95 390.495V434.328M1457.95 390.495H1496.68M1457.95 434.328V478.162M1457.95 434.328H1496.68M1457.95 478.162V521.996M1457.95 478.162H1496.68M1457.95 521.996V565.829M1457.95 521.996H1496.68M1457.95 565.829V609.663M1457.95 565.829H1496.68M1457.95 609.663V653.497M1457.95 609.663H1496.68M1457.95 653.497V697.331M1457.95 653.497H1496.68M1457.95 697.331V741.164M1457.95 697.331H1496.68M1457.95 741.164H1496.68V697.331M1496.68 -47.8429V-4.00912M1496.68 -4.00912V39.8246M1496.68 39.8246V83.6583M1496.68 83.6583V127.492M1496.68 127.492V171.326M1496.68 171.326V215.16M1496.68 215.16V258.993M1496.68 258.993V302.827M1496.68 302.827V346.661M1496.68 346.661V390.495M1496.68 390.495V434.328M1496.68 434.328V478.162M1496.68 478.162V521.996M1496.68 521.996V565.829M1496.68 565.829V609.663M1496.68 609.663V653.497M1496.68 653.497V697.331" stroke="url(#paint36_radial_643_157)" stroke-width="0.968272"/>
</g>
</g>
</g>
<defs>
<filter id="filter0_f_643_157" x="492.597" y="-766.403" width="904.409" height="1239.13" filterUnits="userSpaceOnUse" color-interpolation-filters="sRGB">
<feFlood flood-opacity="0" result="BackgroundImageFix"/>
<feBlend mode="normal" in="SourceGraphic" in2="BackgroundImageFix" result="shape"/>
<feGaussianBlur stdDeviation="42.7016" result="effect1_foregroundBlur_643_157"/>
</filter>
<filter id="filter1_f_643_157" x="639.52" y="-678.782" width="631.475" height="983.224" filterUnits="userSpaceOnUse" color-interpolation-filters="sRGB">
<feFlood flood-opacity="0" result="BackgroundImageFix"/>
<feBlend mode="normal" in="SourceGraphic" in2="BackgroundImageFix" result="shape"/>
<feGaussianBlur stdDeviation="36.7709" result="effect1_foregroundBlur_643_157"/>
</filter>
<filter id="filter2_f_643_157" x="543.554" y="-754.542" width="631.481" height="983.224" filterUnits="userSpaceOnUse" color-interpolation-filters="sRGB">
<feFlood flood-opacity="0" result="BackgroundImageFix"/>
<feBlend mode="normal" in="SourceGraphic" in2="BackgroundImageFix" result="shape"/>
<feGaussianBlur stdDeviation="36.7709" result="effect1_foregroundBlur_643_157"/>
</filter>
<filter id="filter3_f_643_157" x="753.661" y="-728.988" width="631.474" height="983.224" filterUnits="userSpaceOnUse" color-interpolation-filters="sRGB">
<feFlood flood-opacity="0" result="BackgroundImageFix"/>
<feBlend mode="normal" in="SourceGraphic" in2="BackgroundImageFix" result="shape"/>
<feGaussianBlur stdDeviation="36.7709" result="effect1_foregroundBlur_643_157"/>
</filter>
<filter id="filter4_f_643_157" x="603.976" y="-638.709" width="568.075" height="919.815" filterUnits="userSpaceOnUse" color-interpolation-filters="sRGB">
<feFlood flood-opacity="0" result="BackgroundImageFix"/>
<feBlend mode="normal" in="SourceGraphic" in2="BackgroundImageFix" result="shape"/>
<feGaussianBlur stdDeviation="20.919" result="effect1_foregroundBlur_643_157"/>
</filter>
<filter id="filter5_f_643_157" x="639.52" y="-678.782" width="631.475" height="983.224" filterUnits="userSpaceOnUse" color-interpolation-filters="sRGB">
<feFlood flood-opacity="0" result="BackgroundImageFix"/>
<feBlend mode="normal" in="SourceGraphic" in2="BackgroundImageFix" result="shape"/>
<feGaussianBlur stdDeviation="36.7709" result="effect1_foregroundBlur_643_157"/>
</filter>
<filter id="filter6_f_643_157" x="543.554" y="-754.542" width="631.481" height="983.224" filterUnits="userSpaceOnUse" color-interpolation-filters="sRGB">
<feFlood flood-opacity="0" result="BackgroundImageFix"/>
<feBlend mode="normal" in="SourceGraphic" in2="BackgroundImageFix" result="shape"/>
<feGaussianBlur stdDeviation="36.7709" result="effect1_foregroundBlur_643_157"/>
</filter>
<filter id="filter7_f_643_157" x="753.661" y="-728.988" width="631.474" height="983.224" filterUnits="userSpaceOnUse" color-interpolation-filters="sRGB">
<feFlood flood-opacity="0" result="BackgroundImageFix"/>
<feBlend mode="normal" in="SourceGraphic" in2="BackgroundImageFix" result="shape"/>
<feGaussianBlur stdDeviation="36.7709" result="effect1_foregroundBlur_643_157"/>
</filter>
<filter id="filter8_f_643_157" x="603.976" y="-638.709" width="568.075" height="919.815" filterUnits="userSpaceOnUse" color-interpolation-filters="sRGB">
<feFlood flood-opacity="0" result="BackgroundImageFix"/>
<feBlend mode="normal" in="SourceGraphic" in2="BackgroundImageFix" result="shape"/>
<feGaussianBlur stdDeviation="20.919" result="effect1_foregroundBlur_643_157"/>
</filter>
<filter id="filter9_f_643_157" x="639.52" y="-678.782" width="631.475" height="983.224" filterUnits="userSpaceOnUse" color-interpolation-filters="sRGB">
<feFlood flood-opacity="0" result="BackgroundImageFix"/>
<feBlend mode="normal" in="SourceGraphic" in2="BackgroundImageFix" result="shape"/>
<feGaussianBlur stdDeviation="36.7709" result="effect1_foregroundBlur_643_157"/>
</filter>
<filter id="filter10_f_643_157" x="543.554" y="-754.542" width="631.481" height="983.224" filterUnits="userSpaceOnUse" color-interpolation-filters="sRGB">
<feFlood flood-opacity="0" result="BackgroundImageFix"/>
<feBlend mode="normal" in="SourceGraphic" in2="BackgroundImageFix" result="shape"/>
<feGaussianBlur stdDeviation="36.7709" result="effect1_foregroundBlur_643_157"/>
</filter>
<filter id="filter11_f_643_157" x="753.661" y="-728.988" width="631.474" height="983.224" filterUnits="userSpaceOnUse" color-interpolation-filters="sRGB">
<feFlood flood-opacity="0" result="BackgroundImageFix"/>
<feBlend mode="normal" in="SourceGraphic" in2="BackgroundImageFix" result="shape"/>
<feGaussianBlur stdDeviation="36.7709" result="effect1_foregroundBlur_643_157"/>
</filter>
<filter id="filter12_f_643_157" x="603.976" y="-638.709" width="568.075" height="919.815" filterUnits="userSpaceOnUse" color-interpolation-filters="sRGB">
<feFlood flood-opacity="0" result="BackgroundImageFix"/>
<feBlend mode="normal" in="SourceGraphic" in2="BackgroundImageFix" result="shape"/>
<feGaussianBlur stdDeviation="20.919" result="effect1_foregroundBlur_643_157"/>
</filter>
<filter id="filter13_f_643_157" x="639.521" y="-678.783" width="631.474" height="983.224" filterUnits="userSpaceOnUse" color-interpolation-filters="sRGB">
<feFlood flood-opacity="0" result="BackgroundImageFix"/>
<feBlend mode="normal" in="SourceGraphic" in2="BackgroundImageFix" result="shape"/>
<feGaussianBlur stdDeviation="36.7709" result="effect1_foregroundBlur_643_157"/>
</filter>
<filter id="filter14_f_643_157" x="530.751" y="-740.917" width="631.474" height="983.224" filterUnits="userSpaceOnUse" color-interpolation-filters="sRGB">
<feFlood flood-opacity="0" result="BackgroundImageFix"/>
<feBlend mode="normal" in="SourceGraphic" in2="BackgroundImageFix" result="shape"/>
<feGaussianBlur stdDeviation="36.7709" result="effect1_foregroundBlur_643_157"/>
</filter>
<filter id="filter15_f_643_157" x="753.662" y="-728.989" width="631.483" height="983.224" filterUnits="userSpaceOnUse" color-interpolation-filters="sRGB">
<feFlood flood-opacity="0" result="BackgroundImageFix"/>
<feBlend mode="normal" in="SourceGraphic" in2="BackgroundImageFix" result="shape"/>
<feGaussianBlur stdDeviation="36.7709" result="effect1_foregroundBlur_643_157"/>
</filter>
<filter id="filter16_f_643_157" x="696.044" y="-658.789" width="568.067" height="919.816" filterUnits="userSpaceOnUse" color-interpolation-filters="sRGB">
<feFlood flood-opacity="0" result="BackgroundImageFix"/>
<feBlend mode="normal" in="SourceGraphic" in2="BackgroundImageFix" result="shape"/>
<feGaussianBlur stdDeviation="20.919" result="effect1_foregroundBlur_643_157"/>
</filter>
<filter id="filter17_f_643_157" x="536.162" y="-490.658" width="568.069" height="919.815" filterUnits="userSpaceOnUse" color-interpolation-filters="sRGB">
<feFlood flood-opacity="0" result="BackgroundImageFix"/>
<feBlend mode="normal" in="SourceGraphic" in2="BackgroundImageFix" result="shape"/>
<feGaussianBlur stdDeviation="20.919" result="effect1_foregroundBlur_643_157"/>
</filter>
<filter id="filter18_f_643_157" x="590.327" y="-675.11" width="631.475" height="983.224" filterUnits="userSpaceOnUse" color-interpolation-filters="sRGB">
<feFlood flood-opacity="0" result="BackgroundImageFix"/>
<feBlend mode="normal" in="SourceGraphic" in2="BackgroundImageFix" result="shape"/>
<feGaussianBlur stdDeviation="36.7709" result="effect1_foregroundBlur_643_157"/>
</filter>
<filter id="filter19_f_643_157" x="494.361" y="-750.87" width="631.481" height="983.224" filterUnits="userSpaceOnUse" color-interpolation-filters="sRGB">
<feFlood flood-opacity="0" result="BackgroundImageFix"/>
<feBlend mode="normal" in="SourceGraphic" in2="BackgroundImageFix" result="shape"/>
<feGaussianBlur stdDeviation="36.7709" result="effect1_foregroundBlur_643_157"/>
</filter>
<filter id="filter20_f_643_157" x="704.468" y="-725.316" width="631.474" height="983.224" filterUnits="userSpaceOnUse" color-interpolation-filters="sRGB">
<feFlood flood-opacity="0" result="BackgroundImageFix"/>
<feBlend mode="normal" in="SourceGraphic" in2="BackgroundImageFix" result="shape"/>
<feGaussianBlur stdDeviation="36.7709" result="effect1_foregroundBlur_643_157"/>
</filter>
<filter id="filter21_f_643_157" x="554.783" y="-635.037" width="568.075" height="919.815" filterUnits="userSpaceOnUse" color-interpolation-filters="sRGB">
<feFlood flood-opacity="0" result="BackgroundImageFix"/>
<feBlend mode="normal" in="SourceGraphic" in2="BackgroundImageFix" result="shape"/>
<feGaussianBlur stdDeviation="20.919" result="effect1_foregroundBlur_643_157"/>
</filter>
<filter id="filter22_f_643_157" x="590.327" y="-675.11" width="631.475" height="983.224" filterUnits="userSpaceOnUse" color-interpolation-filters="sRGB">
<feFlood flood-opacity="0" result="BackgroundImageFix"/>
<feBlend mode="normal" in="SourceGraphic" in2="BackgroundImageFix" result="shape"/>
<feGaussianBlur stdDeviation="36.7709" result="effect1_foregroundBlur_643_157"/>
</filter>
<filter id="filter23_f_643_157" x="494.361" y="-750.87" width="631.481" height="983.224" filterUnits="userSpaceOnUse" color-interpolation-filters="sRGB">
<feFlood flood-opacity="0" result="BackgroundImageFix"/>
<feBlend mode="normal" in="SourceGraphic" in2="BackgroundImageFix" result="shape"/>
<feGaussianBlur stdDeviation="36.7709" result="effect1_foregroundBlur_643_157"/>
</filter>
<filter id="filter24_f_643_157" x="704.468" y="-725.316" width="631.474" height="983.224" filterUnits="userSpaceOnUse" color-interpolation-filters="sRGB">
<feFlood flood-opacity="0" result="BackgroundImageFix"/>
<feBlend mode="normal" in="SourceGraphic" in2="BackgroundImageFix" result="shape"/>
<feGaussianBlur stdDeviation="36.7709" result="effect1_foregroundBlur_643_157"/>
</filter>
<filter id="filter25_f_643_157" x="554.783" y="-635.037" width="568.075" height="919.815" filterUnits="userSpaceOnUse" color-interpolation-filters="sRGB">
<feFlood flood-opacity="0" result="BackgroundImageFix"/>
<feBlend mode="normal" in="SourceGraphic" in2="BackgroundImageFix" result="shape"/>
<feGaussianBlur stdDeviation="20.919" result="effect1_foregroundBlur_643_157"/>
</filter>
<filter id="filter26_f_643_157" x="590.327" y="-675.11" width="631.475" height="983.224" filterUnits="userSpaceOnUse" color-interpolation-filters="sRGB">
<feFlood flood-opacity="0" result="BackgroundImageFix"/>
<feBlend mode="normal" in="SourceGraphic" in2="BackgroundImageFix" result="shape"/>
<feGaussianBlur stdDeviation="36.7709" result="effect1_foregroundBlur_643_157"/>
</filter>
<filter id="filter27_f_643_157" x="494.361" y="-750.87" width="631.481" height="983.224" filterUnits="userSpaceOnUse" color-interpolation-filters="sRGB">
<feFlood flood-opacity="0" result="BackgroundImageFix"/>
<feBlend mode="normal" in="SourceGraphic" in2="BackgroundImageFix" result="shape"/>
<feGaussianBlur stdDeviation="36.7709" result="effect1_foregroundBlur_643_157"/>
</filter>
<filter id="filter28_f_643_157" x="704.468" y="-725.316" width="631.474" height="983.224" filterUnits="userSpaceOnUse" color-interpolation-filters="sRGB">
<feFlood flood-opacity="0" result="BackgroundImageFix"/>
<feBlend mode="normal" in="SourceGraphic" in2="BackgroundImageFix" result="shape"/>
<feGaussianBlur stdDeviation="36.7709" result="effect1_foregroundBlur_643_157"/>
</filter>
<filter id="filter29_f_643_157" x="554.783" y="-635.037" width="568.075" height="919.815" filterUnits="userSpaceOnUse" color-interpolation-filters="sRGB">
<feFlood flood-opacity="0" result="BackgroundImageFix"/>
<feBlend mode="normal" in="SourceGraphic" in2="BackgroundImageFix" result="shape"/>
<feGaussianBlur stdDeviation="20.919" result="effect1_foregroundBlur_643_157"/>
</filter>
<filter id="filter30_f_643_157" x="590.328" y="-675.111" width="631.474" height="983.224" filterUnits="userSpaceOnUse" color-interpolation-filters="sRGB">
<feFlood flood-opacity="0" result="BackgroundImageFix"/>
<feBlend mode="normal" in="SourceGraphic" in2="BackgroundImageFix" result="shape"/>
<feGaussianBlur stdDeviation="36.7709" result="effect1_foregroundBlur_643_157"/>
</filter>
<filter id="filter31_f_643_157" x="546.485" y="-699.45" width="631.477" height="983.224" filterUnits="userSpaceOnUse" color-interpolation-filters="sRGB">
<feFlood flood-opacity="0" result="BackgroundImageFix"/>
<feBlend mode="normal" in="SourceGraphic" in2="BackgroundImageFix" result="shape"/>
<feGaussianBlur stdDeviation="36.7709" result="effect1_foregroundBlur_643_157"/>
</filter>
<filter id="filter32_f_643_157" x="481.558" y="-737.245" width="631.474" height="983.224" filterUnits="userSpaceOnUse" color-interpolation-filters="sRGB">
<feFlood flood-opacity="0" result="BackgroundImageFix"/>
<feBlend mode="normal" in="SourceGraphic" in2="BackgroundImageFix" result="shape"/>
<feGaussianBlur stdDeviation="36.7709" result="effect1_foregroundBlur_643_157"/>
</filter>
<filter id="filter33_f_643_157" x="704.469" y="-725.317" width="631.483" height="983.224" filterUnits="userSpaceOnUse" color-interpolation-filters="sRGB">
<feFlood flood-opacity="0" result="BackgroundImageFix"/>
<feBlend mode="normal" in="SourceGraphic" in2="BackgroundImageFix" result="shape"/>
<feGaussianBlur stdDeviation="36.7709" result="effect1_foregroundBlur_643_157"/>
</filter>
<filter id="filter34_f_643_157" x="646.851" y="-655.117" width="568.067" height="919.816" filterUnits="userSpaceOnUse" color-interpolation-filters="sRGB">
<feFlood flood-opacity="0" result="BackgroundImageFix"/>
<feBlend mode="normal" in="SourceGraphic" in2="BackgroundImageFix" result="shape"/>
<feGaussianBlur stdDeviation="20.919" result="effect1_foregroundBlur_643_157"/>
</filter>
<filter id="filter35_f_643_157" x="486.969" y="-486.986" width="568.069" height="919.815" filterUnits="userSpaceOnUse" color-interpolation-filters="sRGB">
<feFlood flood-opacity="0" result="BackgroundImageFix"/>
<feBlend mode="normal" in="SourceGraphic" in2="BackgroundImageFix" result="shape"/>
<feGaussianBlur stdDeviation="20.919" result="effect1_foregroundBlur_643_157"/>
</filter>
<radialGradient id="paint0_radial_643_157" cx="0" cy="0" r="1" gradientTransform="matrix(-645 -301.001 258.001 -481.6 774 12)" gradientUnits="userSpaceOnUse">
<stop stop-color="#00CBFF"/>
<stop offset="0.7" stop-color="#642EFF" stop-opacity="0"/>
</radialGradient>
<linearGradient id="paint1_linear_643_157" x1="1183.47" y1="-597.166" x2="900.187" y2="-106.501" gradientUnits="userSpaceOnUse">
<stop stop-color="white"/>
<stop offset="1" stop-color="#3E3E3E"/>
</linearGradient>
<linearGradient id="paint2_linear_643_157" x1="1087.5" y1="-672.926" x2="804.221" y2="-182.262" gradientUnits="userSpaceOnUse">
<stop stop-color="white"/>
<stop offset="1" stop-color="#3E3E3E"/>
</linearGradient>
<linearGradient id="paint3_linear_643_157" x1="1297.61" y1="-647.372" x2="1014.33" y2="-156.707" gradientUnits="userSpaceOnUse">
<stop stop-color="white"/>
<stop offset="1" stop-color="#3E3E3E"/>
</linearGradient>
<linearGradient id="paint4_linear_643_157" x1="1116.22" y1="-588.798" x2="832.939" y2="-98.133" gradientUnits="userSpaceOnUse">
<stop stop-color="#3E3E3E"/>
<stop offset="1" stop-color="white"/>
</linearGradient>
<linearGradient id="paint5_linear_643_157" x1="1183.47" y1="-597.166" x2="900.187" y2="-106.501" gradientUnits="userSpaceOnUse">
<stop stop-color="white"/>
<stop offset="1" stop-color="#3E3E3E"/>
</linearGradient>
<linearGradient id="paint6_linear_643_157" x1="1087.5" y1="-672.926" x2="804.221" y2="-182.262" gradientUnits="userSpaceOnUse">
<stop stop-color="white"/>
<stop offset="1" stop-color="#3E3E3E"/>
</linearGradient>
<linearGradient id="paint7_linear_643_157" x1="1297.61" y1="-647.372" x2="1014.33" y2="-156.707" gradientUnits="userSpaceOnUse">
<stop stop-color="#3E3E3E"/>
<stop offset="1" stop-color="#3E3E3E"/>
</linearGradient>
<linearGradient id="paint8_linear_643_157" x1="1116.22" y1="-588.798" x2="832.939" y2="-98.133" gradientUnits="userSpaceOnUse">
<stop stop-color="#3E3E3E"/>
<stop offset="1" stop-color="#3E3E3E"/>
</linearGradient>
<linearGradient id="paint9_linear_643_157" x1="1183.47" y1="-597.166" x2="900.187" y2="-106.501" gradientUnits="userSpaceOnUse">
<stop stop-color="white"/>
<stop offset="1" stop-color="#3E3E3E"/>
</linearGradient>
<linearGradient id="paint10_linear_643_157" x1="1087.5" y1="-672.926" x2="804.221" y2="-182.262" gradientUnits="userSpaceOnUse">
<stop stop-color="white"/>
<stop offset="1" stop-color="#3E3E3E"/>
</linearGradient>
<linearGradient id="paint11_linear_643_157" x1="1297.61" y1="-647.372" x2="1014.33" y2="-156.707" gradientUnits="userSpaceOnUse">
<stop stop-color="white"/>
<stop offset="1" stop-color="#3E3E3E"/>
</linearGradient>
<linearGradient id="paint12_linear_643_157" x1="1116.22" y1="-588.798" x2="832.939" y2="-98.133" gradientUnits="userSpaceOnUse">
<stop stop-color="#3E3E3E"/>
<stop offset="1" stop-color="white"/>
</linearGradient>
<linearGradient id="paint13_linear_643_157" x1="1183.47" y1="-597.167" x2="900.188" y2="-106.502" gradientUnits="userSpaceOnUse">
<stop stop-color="white"/>
<stop offset="0.557292" stop-color="#00CBFF"/>
<stop offset="1" stop-color="#642EFF"/>
</linearGradient>
<linearGradient id="paint14_linear_643_157" x1="1074.7" y1="-659.301" x2="791.418" y2="-168.636" gradientUnits="userSpaceOnUse">
<stop stop-color="white"/>
<stop offset="1" stop-color="#3E3E3E"/>
</linearGradient>
<linearGradient id="paint15_linear_643_157" x1="1297.61" y1="-647.373" x2="1014.33" y2="-156.708" gradientUnits="userSpaceOnUse">
<stop stop-color="white"/>
<stop offset="0.557292" stop-color="#00CBFF"/>
<stop offset="1" stop-color="#642EFF"/>
</linearGradient>
<linearGradient id="paint16_linear_643_157" x1="1208.29" y1="-608.877" x2="925.007" y2="-118.212" gradientUnits="userSpaceOnUse">
<stop stop-color="#3E3E3E"/>
<stop offset="1" stop-color="#3E3E3E"/>
</linearGradient>
<linearGradient id="paint17_linear_643_157" x1="1048.41" y1="-440.747" x2="765.125" y2="49.9182" gradientUnits="userSpaceOnUse">
<stop stop-color="#3E3E3E"/>
<stop offset="1" stop-color="#3E3E3E"/>
</linearGradient>
<linearGradient id="paint18_linear_643_157" x1="1134.28" y1="-593.494" x2="850.994" y2="-102.829" gradientUnits="userSpaceOnUse">
<stop stop-color="white"/>
<stop offset="1" stop-color="#3E3E3E"/>
</linearGradient>
<linearGradient id="paint19_linear_643_157" x1="1038.31" y1="-669.254" x2="755.028" y2="-178.59" gradientUnits="userSpaceOnUse">
<stop stop-color="white"/>
<stop offset="1" stop-color="#3E3E3E"/>
</linearGradient>
<linearGradient id="paint20_linear_643_157" x1="1248.42" y1="-643.7" x2="965.135" y2="-153.035" gradientUnits="userSpaceOnUse">
<stop stop-color="white"/>
<stop offset="1" stop-color="#3E3E3E"/>
</linearGradient>
<linearGradient id="paint21_linear_643_157" x1="1067.03" y1="-585.126" x2="783.746" y2="-94.461" gradientUnits="userSpaceOnUse">
<stop stop-color="white"/>
<stop offset="1" stop-color="white"/>
</linearGradient>
<linearGradient id="paint22_linear_643_157" x1="1134.28" y1="-593.494" x2="850.994" y2="-102.829" gradientUnits="userSpaceOnUse">
<stop stop-color="white"/>
<stop offset="1" stop-color="#3E3E3E"/>
</linearGradient>
<linearGradient id="paint23_linear_643_157" x1="1038.31" y1="-669.254" x2="755.028" y2="-178.59" gradientUnits="userSpaceOnUse">
<stop stop-color="white"/>
<stop offset="1" stop-color="#3E3E3E"/>
</linearGradient>
<linearGradient id="paint24_linear_643_157" x1="1248.42" y1="-643.7" x2="965.135" y2="-153.035" gradientUnits="userSpaceOnUse">
<stop stop-color="white"/>
<stop offset="1" stop-color="#3E3E3E"/>
</linearGradient>
<linearGradient id="paint25_linear_643_157" x1="1067.03" y1="-585.126" x2="783.746" y2="-94.461" gradientUnits="userSpaceOnUse">
<stop stop-color="white"/>
<stop offset="1" stop-color="white"/>
</linearGradient>
<linearGradient id="paint26_linear_643_157" x1="1134.28" y1="-593.494" x2="850.994" y2="-102.829" gradientUnits="userSpaceOnUse">
<stop stop-color="white"/>
<stop offset="1" stop-color="#3E3E3E"/>
</linearGradient>
<linearGradient id="paint27_linear_643_157" x1="1038.31" y1="-669.254" x2="755.028" y2="-178.59" gradientUnits="userSpaceOnUse">
<stop stop-color="white"/>
<stop offset="1" stop-color="#3E3E3E"/>
</linearGradient>
<linearGradient id="paint28_linear_643_157" x1="1248.42" y1="-643.7" x2="965.135" y2="-153.035" gradientUnits="userSpaceOnUse">
<stop stop-color="white"/>
<stop offset="1" stop-color="#3E3E3E"/>
</linearGradient>
<linearGradient id="paint29_linear_643_157" x1="1067.03" y1="-585.126" x2="783.746" y2="-94.461" gradientUnits="userSpaceOnUse">
<stop stop-color="white"/>
<stop offset="1" stop-color="white"/>
</linearGradient>
<linearGradient id="paint30_linear_643_157" x1="1134.28" y1="-593.495" x2="850.995" y2="-102.83" gradientUnits="userSpaceOnUse">
<stop stop-color="white"/>
<stop offset="0.557292" stop-color="#00CBFF"/>
<stop offset="1" stop-color="#3E3E3E"/>
</linearGradient>
<linearGradient id="paint31_linear_643_157" x1="1090.44" y1="-617.834" x2="807.152" y2="-127.169" gradientUnits="userSpaceOnUse">
<stop stop-color="white"/>
<stop offset="0.557292" stop-color="#00CBFF"/>
<stop offset="1" stop-color="#642EFF"/>
</linearGradient>
<linearGradient id="paint32_linear_643_157" x1="1025.51" y1="-655.629" x2="742.225" y2="-164.964" gradientUnits="userSpaceOnUse">
<stop stop-color="white"/>
<stop offset="1" stop-color="#3E3E3E"/>
</linearGradient>
<linearGradient id="paint33_linear_643_157" x1="1248.42" y1="-643.701" x2="965.136" y2="-153.036" gradientUnits="userSpaceOnUse">
<stop stop-color="white"/>
<stop offset="0.557292" stop-color="#00CBFF"/>
<stop offset="1" stop-color="#642EFF"/>
</linearGradient>
<linearGradient id="paint34_linear_643_157" x1="1159.1" y1="-605.205" x2="875.814" y2="-114.54" gradientUnits="userSpaceOnUse">
<stop stop-color="white"/>
<stop offset="1" stop-color="white"/>
</linearGradient>
<linearGradient id="paint35_linear_643_157" x1="999.217" y1="-437.075" x2="715.932" y2="53.5902" gradientUnits="userSpaceOnUse">
<stop stop-color="white"/>
<stop offset="1" stop-color="white"/>
</linearGradient>
<radialGradient id="paint36_radial_643_157" cx="0" cy="0" r="1" gradientUnits="userSpaceOnUse" gradientTransform="translate(644.604 324.744) rotate(90) scale(416.421 688.069)">
<stop stop-color="white"/>
<stop offset="1" stop-color="white" stop-opacity="0.2"/>
</radialGradient>
<clipPath id="clip0_643_157">
<rect width="1548" height="1200" fill="white"/>
</clipPath>
</defs>
</svg>
