<svg width="120" height="120" viewBox="0 0 120 120" fill="none" xmlns="http://www.w3.org/2000/svg">
<rect x="1.5" y="1.5" width="117" height="117" rx="13.5" fill="black" stroke="url(#paint0_linear_2191_49)" stroke-width="3"/>
<path d="M85.3431 55.0631C86.4902 55.485 87.3052 56.4508 88.1345 57.3088C88.6264 57.8079 89.1434 58.262 89.6765 58.718C90.1217 59.1093 90.5328 59.533 90.9475 59.9548C91.2796 60.2798 91.6225 60.5831 91.9743 60.8865C92.4787 61.3209 92.9544 61.7697 93.4212 62.2436C93.8735 62.7032 94.3331 63.1376 94.8232 63.5559C95.5251 64.1572 96.1713 64.8089 96.8194 65.4659C97.4046 66.0565 98.0131 66.6076 98.6468 67.1479C99.0148 67.4746 99.3595 67.8175 99.7041 68.1676C100.149 68.6199 100.6 69.0472 101.085 69.4582C104.976 72.8457 107.418 76.759 107.962 81.99C108.227 86.4294 107.125 91.0464 104.199 94.4805C103.679 95.0657 103.133 95.6204 102.576 96.1715C102.397 96.3528 102.397 96.3528 102.214 96.5395C98.8568 99.7223 94.3708 100.647 89.8955 100.539C84.9607 100.333 80.4155 97.6005 76.021 95.5594C74.4216 94.8162 72.8167 94.0856 71.2065 93.3675C70.7954 93.1826 70.3861 92.9995 69.975 92.8146C69.2606 92.4951 68.5461 92.1774 67.8298 91.8614C67.1064 91.5419 66.3848 91.2206 65.6631 90.8974C65.3831 90.7718 65.1013 90.6479 64.8194 90.5259C64.4263 90.3535 64.035 90.1776 63.6436 90.0017C63.5287 89.9514 63.412 89.9012 63.2918 89.8509C62.4373 89.4596 62.0029 89.0215 61.4679 88.273C61.1556 87.3377 61.1699 86.4509 61.502 85.5246C61.9849 84.8066 62.6204 84.2555 63.4426 83.9647C64.4568 83.8983 65.2251 84.0814 66.1658 84.4152C66.304 84.4619 66.444 84.5104 66.5876 84.5607C68.4276 85.2015 70.2389 85.9249 72.0502 86.643C72.5079 86.8243 72.9675 87.0038 73.4253 87.1833C73.5635 87.239 73.7017 87.2946 73.8453 87.3521C74.5239 87.616 75.0875 87.8278 75.8289 87.7344C75.8882 87.6752 75.9474 87.616 76.0084 87.5549C75.9815 86.7938 75.9061 86.3953 75.4232 85.7939C75.2545 85.6377 75.084 85.4833 74.9098 85.3218C74.2025 84.6648 73.5563 83.9952 72.9262 83.2628C72.3751 82.6327 71.7953 82.0259 71.2173 81.4174C70.2622 80.4067 69.3108 79.3907 68.3684 78.3675C67.6844 77.6225 66.9951 76.8829 66.304 76.1451C65.3939 75.1721 64.4927 74.1938 63.5933 73.2101C63.0117 72.5764 62.4247 71.9481 61.8377 71.3198C61.7336 71.2067 61.6277 71.0954 61.52 70.9787C60.9976 70.4186 60.4734 69.8586 59.9439 69.3039C59.7482 69.0974 59.5543 68.891 59.3586 68.6845C59.2689 68.5894 59.1791 68.4961 59.0858 68.4009C58.2439 67.5034 57.9656 66.7476 58.0033 65.5359C58.1164 64.6653 58.4342 63.9975 59.0804 63.3979C59.9582 62.7768 60.9294 62.495 62.0065 62.6027C62.7658 62.9348 63.3115 63.3028 63.8949 63.888C64.0457 64.0388 64.1947 64.1878 64.3509 64.3421C64.5089 64.5037 64.6686 64.6653 64.8338 64.8322C65.0007 64.9992 65.1659 65.1661 65.3382 65.3384C65.6919 65.6921 66.0419 66.0457 66.3937 66.4011C66.8407 66.8517 67.2877 67.3023 67.7365 67.7511C68.1673 68.1837 68.5982 68.6163 69.029 69.0508C69.2677 69.2895 69.2677 69.2895 69.5101 69.5336C70.2838 70.3163 71.0306 71.1098 71.7486 71.9445C72.7323 73.0611 73.8076 74.1004 74.856 75.156C75.154 75.4576 75.452 75.7591 75.7482 76.0625C76.179 76.5041 76.6134 76.9403 77.0478 77.3783C77.2453 77.5812 77.2453 77.5812 77.4463 77.7894C77.9957 78.3369 78.3744 78.7103 79.1194 78.9581C79.64 78.9778 79.64 78.9778 80.1372 78.5793C80.288 78.0874 80.288 78.0874 80.1372 77.5022C79.0835 75.9674 77.5074 74.6785 76.188 73.3734C73.4468 70.661 73.4468 70.661 72.5133 69.5552C72.2028 69.2033 71.8725 68.882 71.5332 68.5589C71.4165 68.4476 71.2998 68.3363 71.1796 68.2232C70.9408 67.997 70.7003 67.7726 70.4579 67.55C69.8781 66.9917 69.5783 66.6686 69.3557 65.8788C69.3701 65.1266 69.6088 64.7891 70.0845 64.2183C70.5387 63.9921 70.878 63.9957 71.386 63.9831C71.5529 63.9759 71.7217 63.9687 71.894 63.9616C72.9962 64.1231 73.7645 64.974 74.5185 65.7423C74.6136 65.8375 74.7106 65.9344 74.8093 66.0331C75.1217 66.3473 75.4358 66.665 75.7482 66.981C75.9672 67.2 76.1862 67.4208 76.4052 67.6398C76.9796 68.216 77.5523 68.7941 78.1249 69.3721C79.044 70.3002 79.9649 71.2264 80.8858 72.1509C81.2089 72.4741 81.5285 72.799 81.8498 73.1221C82.0455 73.3196 82.2429 73.517 82.4386 73.7145C82.5283 73.806 82.6163 73.8958 82.7097 73.9891C83.3721 74.6551 83.3721 74.6551 84.266 74.8544C84.4437 74.84 84.6215 74.8257 84.8046 74.8095C85.2139 74.3069 85.2139 74.3069 85.1492 73.7576C84.9446 73.0575 84.6538 72.7577 84.1314 72.2479C84.0434 72.1599 83.9555 72.0737 83.8639 71.9822C83.5713 71.695 83.2769 71.4096 82.9825 71.1241C82.7797 70.9231 82.575 70.722 82.3722 70.521C81.8354 69.9914 81.2987 69.4654 80.7584 68.9395C79.8985 68.0975 79.0386 67.2538 78.1823 66.4083C77.8826 66.1139 77.5828 65.8213 77.2812 65.5287C77.0963 65.3474 76.9114 65.1661 76.7283 64.9848C76.5667 64.8268 76.4052 64.6706 76.24 64.5091C75.4807 63.642 75.1845 62.8701 75.2276 61.7374C75.3568 60.9332 75.7984 60.4539 76.389 59.9315C77.1537 59.6335 77.8933 59.5815 78.7011 59.7305C79.5915 60.1864 80.2755 60.6926 80.9702 61.4179C81.0635 61.5112 81.1551 61.6064 81.252 61.7033C81.4513 61.9061 81.6487 62.109 81.848 62.3136C82.1621 62.6386 82.4781 62.9599 82.794 63.2812C83.6934 64.1931 84.5909 65.1087 85.4849 66.026C86.0324 66.5896 86.5835 67.1497 87.1364 67.708C87.3465 67.9216 87.5547 68.1352 87.7611 68.3507C88.052 68.6504 88.3446 68.9466 88.639 69.2428C88.7233 69.3326 88.8077 69.4205 88.8939 69.5121C89.524 70.1368 90.0266 70.3055 90.908 70.3217C91.4896 70.0237 91.4896 70.0237 91.5578 69.4924C91.276 67.9629 89.4252 66.6668 88.3589 65.6131C88.1848 65.4408 88.0107 65.2666 87.8365 65.0943C87.1041 64.3673 86.3717 63.6402 85.6375 62.915C85.1869 62.468 84.7364 62.021 84.2858 61.5723C84.0327 61.3209 83.7778 61.0696 83.5246 60.8201C83.3703 60.6675 83.2159 60.5131 83.0579 60.3552C82.9215 60.2205 82.7868 60.0877 82.6468 59.9495C81.8624 59.0698 81.6631 58.438 81.7008 57.2837C81.7995 56.4651 82.1478 56.0863 82.7509 55.5568C83.5947 54.9518 84.3235 54.9375 85.3431 55.0631Z" fill="#FCEFDC"/>
<rect x="17" y="16" width="51" height="31" rx="5" fill="url(#paint1_linear_2191_49)"/>
<g clip-path="url(#clip0_2191_49)">
<path d="M45.8839 19.4385C46.1291 19.5071 46.3583 19.6233 46.5586 19.7806C46.7588 19.9378 46.926 20.133 47.0508 20.3549C47.1756 20.5768 47.2554 20.8212 47.2856 21.0739C47.3159 21.3267 47.2961 21.583 47.2273 21.8281L41.5039 42.2196C41.3651 42.7145 41.0355 43.1339 40.5875 43.3857C40.1395 43.6375 39.6098 43.7011 39.1149 43.5623C38.6201 43.4236 38.2006 43.0939 37.9488 42.6459C37.697 42.1979 37.6335 41.6682 37.7723 41.1734L43.4956 20.7793C43.5644 20.5342 43.6807 20.3051 43.838 20.105C43.9953 19.9049 44.1905 19.7378 44.4124 19.6132C44.6343 19.4886 44.8786 19.4089 45.1313 19.3787C45.384 19.3485 45.6402 19.3684 45.8852 19.4372L45.8839 19.4385ZM36.7648 24.6504C37.1276 25.0137 37.3314 25.5061 37.3314 26.0195C37.3314 26.533 37.1276 27.0254 36.7648 27.3887L32.6573 31.5001L36.7673 35.6102C37.1306 35.9736 37.3347 36.4665 37.3345 36.9804C37.3344 37.4943 37.1302 37.9871 36.7667 38.3504C36.4032 38.7137 35.9103 38.9178 35.3964 38.9176C34.8825 38.9175 34.3897 38.7133 34.0264 38.3498L28.5459 32.8693C28.183 32.506 27.9792 32.0135 27.9792 31.5001C27.9792 30.9867 28.183 30.4942 28.5459 30.1309L34.0251 24.6504C34.2051 24.4703 34.4187 24.3275 34.6538 24.2301C34.889 24.1326 35.141 24.0825 35.3956 24.0825C35.6501 24.0825 35.9022 24.1326 36.1373 24.2301C36.3725 24.3275 36.5848 24.4703 36.7648 24.6504ZM48.2348 27.3887C48.0444 27.2113 47.8917 26.9974 47.7858 26.7598C47.6799 26.5221 47.623 26.2655 47.6184 26.0054C47.6138 25.7452 47.6617 25.4868 47.7591 25.2456C47.8565 25.0043 48.0016 24.7852 48.1856 24.6012C48.3696 24.4172 48.5887 24.2722 48.83 24.1747C49.0712 24.0773 49.3296 24.0294 49.5898 24.034C49.8499 24.0386 50.1065 24.0956 50.3441 24.2014C50.5818 24.3073 50.7957 24.46 50.9731 24.6504L56.4536 30.1296C56.8169 30.493 57.0209 30.9857 57.0209 31.4994C57.0209 32.0132 56.8169 32.5059 56.4536 32.8693L50.9744 38.3498C50.7945 38.5298 50.5809 38.6725 50.3459 38.77C50.1108 38.8674 49.8588 38.9176 49.6044 38.9176C49.3499 38.9177 49.0979 38.8677 48.8628 38.7703C48.6277 38.673 48.4141 38.5303 48.2341 38.3504C48.0541 38.1706 47.9114 37.957 47.8139 37.7219C47.7165 37.4869 47.6663 37.2349 47.6663 36.9804C47.6662 36.726 47.7163 36.474 47.8136 36.2389C47.9109 36.0038 48.0536 35.7901 48.2335 35.6102L52.3435 31.5001L48.2348 27.3887Z" fill="black"/>
</g>
<path d="M17 58C17 55.2386 19.2386 53 22 53H55.577C58.3147 53 60.5302 55.2012 60.5171 57.9389C60.515 58.3954 60.5142 58.8976 60.5167 59.5C50.3947 63.0514 55.5 70 59.5 73C59.8698 73.4623 60.1387 73.8287 60.3312 74.143C61.7648 76.4837 58.3039 79 55.5591 79H22C19.2386 79 17 76.7614 17 74V58Z" fill="url(#paint2_linear_2191_49)"/>
<rect x="24" y="60.3999" width="18" height="3.1" rx="1.55" fill="black"/>
<rect x="24.05" y="60.4499" width="17.9" height="3" rx="1.5" stroke="#C62AFF" stroke-opacity="0.7" stroke-width="0.1"/>
<path d="M24 70.25C24 69.3939 24.694 68.7 25.55 68.7H37.75C38.606 68.7 39.3 69.3939 39.3 70.25V70.25C39.3 71.106 38.606 71.8 37.75 71.8H25.55C24.694 71.8 24 71.106 24 70.25V70.25Z" fill="black"/>
<path d="M25.5498 68.7498H37.75C38.5784 68.7498 39.2499 69.4214 39.25 70.2498C39.25 71.0782 38.5784 71.7498 37.75 71.7498H25.5498C24.7215 71.7497 24.0498 71.0781 24.0498 70.2498C24.0499 69.4215 24.7215 68.7499 25.5498 68.7498Z" stroke="#C62AFF" stroke-opacity="0.8" stroke-width="0.1"/>
<defs>
<linearGradient id="paint0_linear_2191_49" x1="120" y1="1.26362e-05" x2="14" y2="129" gradientUnits="userSpaceOnUse">
<stop stop-color="#00C8FF"/>
<stop offset="1" stop-color="#BB00FF"/>
</linearGradient>
<linearGradient id="paint1_linear_2191_49" x1="42.5" y1="16" x2="42.5" y2="47" gradientUnits="userSpaceOnUse">
<stop stop-color="#209CFD"/>
<stop offset="0.41371" stop-color="#337BFC"/>
<stop offset="1" stop-color="#4B5EF8"/>
</linearGradient>
<linearGradient id="paint2_linear_2191_49" x1="35.65" y1="45.5" x2="33.2364" y2="82.5115" gradientUnits="userSpaceOnUse">
<stop stop-color="#5A4FF5"/>
<stop offset="1" stop-color="#8425E6"/>
</linearGradient>
<clipPath id="clip0_2191_49">
<rect width="31" height="31" fill="white" transform="translate(27 16)"/>
</clipPath>
</defs>
</svg>
