<svg width="1237" height="623" viewBox="0 0 1237 623" fill="none" xmlns="http://www.w3.org/2000/svg">
<g clip-path="url(#clip0_110_1513)">
<rect width="1249" height="630" fill="#0D0D0D"/>
<rect x="459.833" y="-63.8723" width="123.281" height="123.281" rx="13.6034" stroke="#0D0D0D" stroke-width="1.27532"/>
<rect x="583.114" y="-63.8724" width="123.281" height="123.281" rx="13.6034" stroke="#0D0D0D" stroke-width="1.27532"/>
<rect x="706.396" y="-63.8724" width="123.281" height="123.281" rx="13.6034" stroke="#0D0D0D" stroke-width="1.27532"/>
<rect x="829.677" y="-63.8724" width="123.281" height="123.281" rx="13.6034" stroke="#0D0D0D" stroke-width="1.27532"/>
<rect x="952.958" y="-63.8724" width="123.281" height="123.281" rx="13.6034" stroke="#0D0D0D" stroke-width="1.27532"/>
<rect x="1076.24" y="-63.8724" width="123.281" height="123.281" rx="13.6034" stroke="#0D0D0D" stroke-width="1.27532"/>
<rect x="337.833" y="59" width="123.281" height="123.281" rx="13.6034" stroke="#0D0D0D" stroke-width="1.27532"/>
<rect x="461.114" y="59" width="123.281" height="123.281" rx="13.6034" stroke="#0D0D0D" stroke-width="1.27532"/>
<rect x="584.396" y="59" width="123.281" height="123.281" rx="13.6034" stroke="#0D0D0D" stroke-width="1.27532"/>
<rect x="707.677" y="59" width="123.281" height="123.281" rx="13.6034" stroke="#0D0D0D" stroke-width="1.27532"/>
<rect x="830.958" y="59" width="123.281" height="123.281" rx="13.6034" stroke="#0D0D0D" stroke-width="1.27532"/>
<rect x="954.24" y="59" width="123.281" height="123.281" rx="13.6034" stroke="#0D0D0D" stroke-width="1.27532"/>
<rect x="459.833" y="182.69" width="123.281" height="123.281" rx="13.6034" stroke="#0D0D0D" stroke-width="1.27532"/>
<rect x="583.114" y="182.69" width="123.281" height="123.281" rx="13.6034" stroke="#0D0D0D" stroke-width="1.27532"/>
<rect x="706.396" y="182.69" width="123.281" height="123.281" rx="13.6034" stroke="#0D0D0D" stroke-width="1.27532"/>
<rect x="829.677" y="182.69" width="123.281" height="123.281" rx="13.6034" stroke="#0D0D0D" stroke-width="1.27532"/>
<rect x="952.958" y="182.69" width="123.281" height="123.281" rx="13.6034" stroke="#0D0D0D" stroke-width="1.27532"/>
<rect x="1076.24" y="182.69" width="123.281" height="123.281" rx="13.6034" stroke="#0D0D0D" stroke-width="1.27532"/>
<rect x="459.833" y="305.971" width="123.281" height="123.281" rx="13.6034" stroke="#0D0D0D" stroke-width="1.27532"/>
<rect x="583.114" y="305.972" width="123.281" height="123.281" rx="13.6034" stroke="#0D0D0D" stroke-width="1.27532"/>
<rect x="706.396" y="305.972" width="123.281" height="123.281" rx="13.6034" stroke="#0D0D0D" stroke-width="1.27532"/>
<rect x="829.677" y="305.972" width="123.281" height="123.281" rx="13.6034" stroke="#0D0D0D" stroke-width="1.27532"/>
<rect x="952.958" y="305.972" width="123.281" height="123.281" rx="13.6034" stroke="#0D0D0D" stroke-width="1.27532"/>
<rect x="1076.24" y="305.972" width="123.281" height="123.281" rx="13.6034" stroke="#0D0D0D" stroke-width="1.27532"/>
<rect x="337.833" y="429" width="123.281" height="123.281" rx="13.6034" stroke="#0D0D0D" stroke-width="1.27532"/>
<rect x="461.114" y="429" width="123.281" height="123.281" rx="13.6034" stroke="#0D0D0D" stroke-width="1.27532"/>
<rect x="584.396" y="429" width="123.281" height="123.281" rx="13.6034" stroke="#0D0D0D" stroke-width="1.27532"/>
<rect x="707.677" y="429" width="123.281" height="123.281" rx="13.6034" stroke="#0D0D0D" stroke-width="1.27532"/>
<rect x="830.958" y="429" width="123.281" height="123.281" rx="13.6034" stroke="#0D0D0D" stroke-width="1.27532"/>
<rect x="954.24" y="429" width="123.281" height="123.281" rx="13.6034" stroke="#0D0D0D" stroke-width="1.27532"/>
<rect x="1077.52" y="429" width="123.281" height="123.281" rx="13.6034" stroke="#0D0D0D" stroke-width="1.27532"/>
<rect x="1200.8" y="429" width="123.281" height="123.281" rx="13.6034" stroke="#0D0D0D" stroke-width="1.27532"/>
<rect x="459.833" y="552.534" width="123.281" height="123.281" rx="13.6034" stroke="#0D0D0D" stroke-width="1.27532"/>
<rect x="583.114" y="552.534" width="123.281" height="123.281" rx="13.6034" stroke="#0D0D0D" stroke-width="1.27532"/>
<rect x="706.396" y="552.534" width="123.281" height="123.281" rx="13.6034" stroke="#0D0D0D" stroke-width="1.27532"/>
<rect x="829.677" y="552.534" width="123.281" height="123.281" rx="13.6034" stroke="#0D0D0D" stroke-width="1.27532"/>
<rect x="952.958" y="552.534" width="123.281" height="123.281" rx="13.6034" stroke="#0D0D0D" stroke-width="1.27532"/>
<rect x="1076.24" y="552.534" width="123.281" height="123.281" rx="13.6034" stroke="#0D0D0D" stroke-width="1.27532"/>
<path d="M952.958 -53.6698V45.8054C952.958 53.3184 959.049 59.4089 966.562 59.4089H1062.64C1070.15 59.4089 1076.24 65.4993 1076.24 73.0123V169.087C1076.24 176.6 1082.33 182.69 1089.84 182.69H1185.92C1193.43 182.69 1199.52 188.781 1199.52 196.294V292.368C1199.52 299.881 1205.61 305.971 1213.12 305.971H1309.2C1316.71 305.971 1322.8 312.062 1322.8 319.575V415.649C1322.8 423.162 1328.89 429.253 1336.41 429.253H1435.88M829.677 -53.6698V45.8054C829.677 53.3184 835.768 59.4089 843.281 59.4089H939.355C946.868 59.4089 952.958 65.4993 952.958 73.0123V169.087C952.958 176.6 959.049 182.69 966.562 182.69H1062.64C1070.15 182.69 1076.24 188.781 1076.24 196.294V292.368C1076.24 299.881 1070.15 305.971 1062.64 305.971H966.562C959.049 305.971 952.958 299.881 952.958 292.368V194.593L952.839 193.79C951.927 187.628 946.697 183.028 940.469 182.908L929.152 182.69H843.281C835.768 182.69 829.677 188.781 829.677 196.294V292.368C829.677 299.881 835.768 305.971 843.281 305.971H940.205L943.434 306.187C948.794 306.544 952.958 310.995 952.958 316.367V326.802M952.958 316.174V415.649C952.958 423.162 959.049 429.253 966.562 429.253H1062.64C1070.15 429.253 1076.24 435.343 1076.24 442.856V538.93C1076.24 546.443 1082.33 552.534 1089.84 552.534H1185.92C1193.43 552.534 1199.52 558.624 1199.52 566.137V662.212C1199.52 669.725 1205.61 675.815 1213.12 675.815H1309.2C1316.71 675.815 1322.8 681.906 1322.8 689.419V785.493C1322.8 793.006 1328.89 799.096 1336.41 799.096H1435.88" stroke="url(#paint0_linear_110_1513)" stroke-opacity="0.8" stroke-width="1.27532"/>
<rect x="506" y="761" width="716" height="818" transform="rotate(-90 506 761)" fill="url(#paint1_linear_110_1513)"/>
<rect x="1035" y="718" width="900" height="552" transform="rotate(180 1035 718)" fill="url(#paint2_linear_110_1513)"/>
<rect x="1645.06" y="825.844" width="691.225" height="369.844" transform="rotate(180 1645.06 825.844)" fill="url(#paint3_linear_110_1513)"/>
<rect x="157.718" y="-157" width="1183.35" height="339.002" transform="rotate(0.121329 157.718 -157)" fill="url(#paint4_linear_110_1513)"/>
<rect x="-89.1562" y="322" width="123.281" height="123.281" rx="13.6034" stroke="#0D0D0D" stroke-width="1.27532"/>
<rect x="34.1248" y="322" width="123.281" height="123.281" rx="13.6034" stroke="#0D0D0D" stroke-width="1.27532"/>
<rect x="157.406" y="322" width="123.281" height="123.281" rx="13.6034" stroke="#0D0D0D" stroke-width="1.27532"/>
<path d="M32.2813 -39V60.4752C32.2813 67.9882 38.3717 74.0787 45.8847 74.0787H141.959C149.472 74.0787 155.563 80.1691 155.563 87.6821V183.756C155.563 191.269 161.653 197.36 169.166 197.36H265.24C272.753 197.36 278.844 203.45 278.844 210.963V307.038C278.844 314.551 284.934 320.641 292.447 320.641H388.522C396.035 320.641 402.125 326.732 402.125 334.245V430.319C402.125 437.832 408.215 443.922 415.728 443.922H515.204M-91 -39V60.4752C-91 67.9882 -84.9095 74.0787 -77.3966 74.0787H18.6778C26.1908 74.0787 32.2813 80.1691 32.2813 87.6821V183.756C32.2813 191.269 38.3717 197.36 45.8847 197.36H141.959C149.472 197.36 155.563 203.45 155.563 210.963V307.038C155.563 314.551 149.472 320.641 141.959 320.641H45.8847C38.3717 320.641 32.2813 314.551 32.2813 307.038V209.263L32.1622 208.459C31.2494 202.298 26.0194 197.697 19.7919 197.578L8.47522 197.36H-77.3966C-84.9095 197.36 -91 203.45 -91 210.963V307.038C-91 314.551 -84.9095 320.641 -77.3966 320.641H19.528L22.7573 320.856C28.1167 321.214 32.2813 325.665 32.2813 331.036V341.471M32.2813 330.844V430.319C32.2813 437.832 38.3717 443.922 45.8847 443.922H141.959C149.472 443.922 155.563 450.013 155.563 457.526V553.6C155.563 561.113 161.653 567.204 169.166 567.204H265.24C272.753 567.204 278.844 573.294 278.844 580.807V676.881C278.844 684.394 284.934 690.485 292.447 690.485H388.522C396.035 690.485 402.125 696.575 402.125 704.088V800.163C402.125 807.676 408.215 813.766 415.728 813.766H515.204" stroke="url(#paint5_linear_110_1513)" stroke-opacity="0.8" stroke-width="1.27532"/>
<rect x="515.277" y="-30" width="716" height="619.278" transform="rotate(89.9613 515.277 -30)" fill="url(#paint6_linear_110_1513)"/>
<ellipse cx="963" cy="286.5" rx="246" ry="286.5" fill="url(#paint7_radial_110_1513)"/>
<ellipse cx="157.5" cy="402.5" rx="493.5" ry="531.5" fill="url(#paint8_radial_110_1513)"/>
<ellipse cx="707.967" cy="-0.0506287" rx="459.967" ry="391.949" fill="url(#paint9_radial_110_1513)"/>
</g>
<defs>
<linearGradient id="paint0_linear_110_1513" x1="829.677" y1="-53.6698" x2="1422.28" y2="679.641" gradientUnits="userSpaceOnUse">
<stop stop-color="#3170D7"/>
<stop offset="0.9375" stop-color="#78D2F8"/>
</linearGradient>
<linearGradient id="paint1_linear_110_1513" x1="864" y1="761" x2="865.004" y2="1579.34" gradientUnits="userSpaceOnUse">
<stop stop-color="#0D0D0D"/>
<stop offset="0.666667" stop-color="#0D0D0D" stop-opacity="0.79"/>
<stop offset="1" stop-color="#0D0D0D" stop-opacity="0"/>
</linearGradient>
<linearGradient id="paint2_linear_110_1513" x1="1485" y1="718" x2="1485.36" y2="1270.23" gradientUnits="userSpaceOnUse">
<stop stop-color="#0D0D0D"/>
<stop offset="0.666667" stop-color="#0D0D0D" stop-opacity="0.79"/>
<stop offset="1" stop-color="#0D0D0D" stop-opacity="0"/>
</linearGradient>
<linearGradient id="paint3_linear_110_1513" x1="1990.67" y1="825.844" x2="1990.88" y2="1195.84" gradientUnits="userSpaceOnUse">
<stop stop-color="#0D0D0D"/>
<stop offset="0.666667" stop-color="#0D0D0D" stop-opacity="0.79"/>
<stop offset="1" stop-color="#0D0D0D" stop-opacity="0"/>
</linearGradient>
<linearGradient id="paint4_linear_110_1513" x1="749.394" y1="-157" x2="749.498" y2="182.145" gradientUnits="userSpaceOnUse">
<stop stop-color="#0D0D0D"/>
<stop offset="0.666667" stop-color="#0D0D0D" stop-opacity="0.79"/>
<stop offset="1" stop-color="#0D0D0D" stop-opacity="0"/>
</linearGradient>
<linearGradient id="paint5_linear_110_1513" x1="-91" y1="-39" x2="501.6" y2="694.311" gradientUnits="userSpaceOnUse">
<stop stop-color="#3170D7"/>
<stop offset="0.9375" stop-color="#78D2F8"/>
</linearGradient>
<linearGradient id="paint6_linear_110_1513" x1="873.278" y1="-30" x2="873.853" y2="589.539" gradientUnits="userSpaceOnUse">
<stop stop-color="#0D0D0D"/>
<stop offset="0.666667" stop-color="#0D0D0D" stop-opacity="0.79"/>
<stop offset="1" stop-color="#0D0D0D" stop-opacity="0"/>
</linearGradient>
<radialGradient id="paint7_radial_110_1513" cx="0" cy="0" r="1" gradientUnits="userSpaceOnUse" gradientTransform="translate(963 286.5) rotate(90) scale(286.5 246)">
<stop offset="0.15625" stop-color="#0D0D0D"/>
<stop offset="0.604167" stop-color="#0D0D0D" stop-opacity="0.49"/>
<stop offset="1" stop-color="#0D0D0D" stop-opacity="0"/>
</radialGradient>
<radialGradient id="paint8_radial_110_1513" cx="0" cy="0" r="1" gradientUnits="userSpaceOnUse" gradientTransform="translate(157.5 402.5) rotate(90) scale(531.5 493.5)">
<stop offset="0.15625" stop-color="#0D0D0D"/>
<stop offset="0.604167" stop-color="#0D0D0D" stop-opacity="0.49"/>
<stop offset="1" stop-color="#0D0D0D" stop-opacity="0"/>
</radialGradient>
<radialGradient id="paint9_radial_110_1513" cx="0" cy="0" r="1" gradientUnits="userSpaceOnUse" gradientTransform="translate(707.967 -0.0506287) rotate(90) scale(391.949 459.967)">
<stop offset="0.15625" stop-color="#0D0D0D"/>
<stop offset="0.604167" stop-color="#0D0D0D" stop-opacity="0.49"/>
<stop offset="1" stop-color="#0D0D0D" stop-opacity="0"/>
</radialGradient>
<clipPath id="clip0_110_1513">
<rect width="1249" height="630" fill="white"/>
</clipPath>
</defs>
</svg>
