<svg width="55" height="55" viewBox="0 0 55 55" fill="none" xmlns="http://www.w3.org/2000/svg">
<path d="M42.3807 37.7085L38.4874 37.9866L37.7458 41.7871L34.038 40.7211L32.045 44.0582L28.8933 41.7408L25.8807 44.1972L23.7023 40.9529L20.0408 42.2506L19.1138 38.4501L15.2206 38.4037L15.6377 34.5104L11.9762 33.1663L13.6911 29.6439L10.7711 27.0947L13.552 24.4065L11.6981 21.0231L15.2206 19.4472L14.6181 15.6003L18.5113 15.3686L19.2529 11.5217L22.9607 12.634L24.9537 9.25062L28.1054 11.568L31.118 9.11157L33.2964 12.356L36.9579 11.0582L37.8849 14.8588L41.7782 14.9051L41.361 18.7984L45.0225 20.1425L43.3076 23.6649L46.2276 26.2141L43.4003 28.9023L45.3006 32.2857L41.7318 33.8616L42.3807 37.7085Z" fill="url(#paint0_linear_1138_208)"/>
<path d="M28.4761 39.7942C35.7201 39.7942 41.5926 33.9217 41.5926 26.6776C41.5926 19.4335 35.7201 13.561 28.4761 13.561C21.232 13.561 15.3595 19.4335 15.3595 26.6776C15.3595 33.9217 21.232 39.7942 28.4761 39.7942Z" fill="url(#paint1_radial_1138_208)"/>
<path d="M30.5154 25.2873C27.1784 22.5527 25.8806 18.4277 27.5955 16.0639C29.3104 13.7002 33.4354 13.9319 36.8188 16.6665C40.1559 19.401 41.4536 23.526 39.7387 25.8898C37.9775 28.2999 33.8525 28.0218 30.5154 25.2873Z" fill="url(#paint2_radial_1138_208)"/>
<path opacity="0.4" d="M16.889 29.5513C17.3525 28.1145 19.5772 28.717 21.941 30.8954C24.2584 33.0738 25.8342 36.0401 25.3707 37.5232C24.9073 38.96 22.6826 38.3575 20.3188 36.1791C18.0014 33.9544 16.4255 31.0345 16.889 29.5513Z" fill="url(#paint3_radial_1138_208)"/>
<path d="M20.7359 34.3715C20.5042 30.9417 17.6306 28.2072 14.1545 28.2072C10.6784 28.2072 7.80478 30.9417 7.57304 34.3715C4.97754 34.5105 2.89185 36.6425 2.89185 39.2844C2.89185 42.019 5.11658 44.1973 7.80478 44.1973H20.4579C23.1924 44.1973 25.3708 41.9726 25.3708 39.2844C25.4171 36.6425 23.3778 34.5105 20.7359 34.3715Z" fill="url(#paint4_radial_1138_208)"/>
<path d="M20.7359 34.3715C20.5042 30.9417 17.6306 28.2072 14.1545 28.2072C10.6784 28.2072 7.80478 30.9417 7.57304 34.3715C4.97754 34.5105 2.89185 36.6425 2.89185 39.2844C2.89185 42.019 5.11658 44.1973 7.80478 44.1973H20.4579C23.1924 44.1973 25.3708 41.9726 25.3708 39.2844C25.4171 36.6425 23.3778 34.5105 20.7359 34.3715Z" fill="url(#paint5_radial_1138_208)"/>
<path d="M14.1546 34.9741C12.3006 33.4909 11.5591 31.1735 12.5324 29.8758C13.5057 28.578 15.7768 28.7171 17.6307 30.2002C19.4846 31.6834 20.2262 34.0008 19.2529 35.2985C18.3259 36.6426 16.0085 36.5036 14.1546 34.9741Z" fill="url(#paint6_radial_1138_208)"/>
<path opacity="0.4" d="M20.7824 39.4234C19.3456 38.2647 18.7431 36.4571 19.531 35.3911C20.2726 34.3714 22.0801 34.4641 23.5169 35.6692C24.9537 36.8279 25.5563 38.6355 24.7683 39.7015C24.0268 40.7211 22.2655 40.5821 20.7824 39.4234Z" fill="url(#paint7_radial_1138_208)"/>
<path opacity="0.2" d="M6.41433 39.6089C5.34832 37.9403 4.09692 37.1061 3.63344 37.8013C3.16995 38.4965 3.67977 40.3968 4.74578 42.0653C5.81179 43.7339 7.06319 44.5681 7.52668 43.8729C7.99016 43.1777 7.52669 41.2774 6.41433 39.6089Z" fill="url(#paint8_radial_1138_208)"/>
<path d="M48.7768 20.5131C48.5914 17.8713 46.3666 15.7393 43.6784 15.7393C40.9902 15.7393 38.7655 17.8249 38.5801 20.5131C36.5872 20.6058 34.965 22.2744 34.965 24.3137C34.965 26.3994 36.6799 28.1143 38.7655 28.1143H48.5914C50.6771 28.1143 52.3919 26.3994 52.3919 24.3137C52.3919 22.2744 50.8161 20.6522 48.7768 20.5131Z" fill="url(#paint9_radial_1138_208)"/>
<path d="M48.7768 20.5131C48.5914 17.8713 46.3666 15.7393 43.6784 15.7393C40.9902 15.7393 38.7655 17.8249 38.5801 20.5131C36.5872 20.6058 34.965 22.2744 34.965 24.3137C34.965 26.3994 36.6799 28.1143 38.7655 28.1143H48.5914C50.6771 28.1143 52.3919 26.3994 52.3919 24.3137C52.3919 22.2744 50.8161 20.6522 48.7768 20.5131Z" fill="url(#paint10_radial_1138_208)"/>
<path d="M43.6784 21.0231C42.2416 19.8644 41.6855 18.1031 42.427 17.0835C43.1686 16.0638 44.9299 16.1565 46.3667 17.3152C47.8034 18.4739 48.3596 20.2352 47.618 21.2548C46.8765 22.2745 45.1152 22.1818 43.6784 21.0231Z" fill="url(#paint11_radial_1138_208)"/>
<path opacity="0.4" d="M48.8231 24.4526C47.7108 23.5257 47.2473 22.1352 47.8498 21.3473C48.4523 20.5594 49.8428 20.6521 50.9552 21.5327C52.0675 22.4596 52.531 23.8501 51.9285 24.638C51.326 25.4259 49.9355 25.3332 48.8231 24.4526Z" fill="url(#paint12_radial_1138_208)"/>
<path opacity="0.2" d="M37.6994 24.5454C36.8652 23.2477 35.8918 22.6452 35.521 23.155C35.1503 23.6648 35.521 25.148 36.3553 26.4457C37.1896 27.7435 38.1629 28.346 38.5337 27.8362C38.9045 27.3263 38.5337 25.8432 37.6994 24.5454Z" fill="url(#paint13_radial_1138_208)"/>
<defs>
<linearGradient id="paint0_linear_1138_208" x1="44.6687" y1="8.58529" x2="13.4955" y2="43.4204" gradientUnits="userSpaceOnUse">
<stop stop-color="#FFBA24"/>
<stop offset="1" stop-color="#FF5500"/>
</linearGradient>
<radialGradient id="paint1_radial_1138_208" cx="0" cy="0" r="1" gradientUnits="userSpaceOnUse" gradientTransform="translate(31.5013 18.4204) rotate(180) scale(24.9387 24.9387)">
<stop stop-color="#FFF4C3"/>
<stop offset="0.1559" stop-color="#FFE036"/>
<stop offset="1" stop-color="#FA761C"/>
</radialGradient>
<radialGradient id="paint2_radial_1138_208" cx="0" cy="0" r="1" gradientTransform="matrix(-3.14155 4.31851 -6.05923 -4.91373 33.6397 20.9865)" gradientUnits="userSpaceOnUse">
<stop stop-color="white"/>
<stop offset="1" stop-color="white" stop-opacity="0"/>
</radialGradient>
<radialGradient id="paint3_radial_1138_208" cx="0" cy="0" r="1" gradientTransform="matrix(-4.23247 -3.976 0.801919 -2.6308 21.1185 33.5363)" gradientUnits="userSpaceOnUse">
<stop stop-color="white"/>
<stop offset="1" stop-color="white" stop-opacity="0"/>
</radialGradient>
<radialGradient id="paint4_radial_1138_208" cx="0" cy="0" r="1" gradientUnits="userSpaceOnUse" gradientTransform="translate(17.0111 31.5949) rotate(180) scale(17.1685 12.5416)">
<stop stop-color="white"/>
<stop offset="0.198" stop-color="#D5F3FF"/>
<stop offset="1" stop-color="#85BCF1"/>
</radialGradient>
<radialGradient id="paint5_radial_1138_208" cx="0" cy="0" r="1" gradientUnits="userSpaceOnUse" gradientTransform="translate(20.906 33.8356) scale(19.5184 19.5184)">
<stop stop-color="#FFE036"/>
<stop offset="0.00517127" stop-color="#FFDF36" stop-opacity="0.9933"/>
<stop offset="0.1623" stop-color="#FDB92C" stop-opacity="0.789"/>
<stop offset="0.319" stop-color="#FC9C25" stop-opacity="0.5851"/>
<stop offset="0.4735" stop-color="#FB8720" stop-opacity="0.3841"/>
<stop offset="0.6247" stop-color="#FA7A1D" stop-opacity="0.1875"/>
<stop offset="0.7688" stop-color="#FA761C" stop-opacity="0"/>
</radialGradient>
<radialGradient id="paint6_radial_1138_208" cx="0" cy="0" r="1" gradientTransform="matrix(-1.73824 2.38946 -3.35262 -2.7188 15.9114 32.5958)" gradientUnits="userSpaceOnUse">
<stop stop-color="white"/>
<stop offset="1" stop-color="white" stop-opacity="0"/>
</radialGradient>
<radialGradient id="paint7_radial_1138_208" cx="0" cy="0" r="1" gradientTransform="matrix(-1.36613 1.87794 -2.6349 -2.13677 22.1568 37.5461)" gradientUnits="userSpaceOnUse">
<stop stop-color="white"/>
<stop offset="1" stop-color="white" stop-opacity="0"/>
</radialGradient>
<radialGradient id="paint8_radial_1138_208" cx="0" cy="0" r="1" gradientTransform="matrix(1.07251 -0.51638 1.50319 3.1222 5.5874 40.8146)" gradientUnits="userSpaceOnUse">
<stop stop-color="white"/>
<stop offset="1" stop-color="white" stop-opacity="0"/>
</radialGradient>
<radialGradient id="paint9_radial_1138_208" cx="0" cy="0" r="1" gradientUnits="userSpaceOnUse" gradientTransform="translate(45.8898 18.3797) rotate(180) scale(13.2931 9.71062)">
<stop stop-color="white"/>
<stop offset="0.198" stop-color="#D5F3FF"/>
<stop offset="1" stop-color="#85BCF1"/>
</radialGradient>
<radialGradient id="paint10_radial_1138_208" cx="0" cy="0" r="1" gradientUnits="userSpaceOnUse" gradientTransform="translate(37.2054 22.9444) scale(17.764 17.764)">
<stop stop-color="#FFE036"/>
<stop offset="0.00517127" stop-color="#FFDF36" stop-opacity="0.9933"/>
<stop offset="0.1623" stop-color="#FDB92C" stop-opacity="0.789"/>
<stop offset="0.319" stop-color="#FC9C25" stop-opacity="0.5851"/>
<stop offset="0.4735" stop-color="#FB8720" stop-opacity="0.3841"/>
<stop offset="0.6247" stop-color="#FA7A1D" stop-opacity="0.1875"/>
<stop offset="0.7688" stop-color="#FA761C" stop-opacity="0"/>
</radialGradient>
<radialGradient id="paint11_radial_1138_208" cx="0" cy="0" r="1" gradientTransform="matrix(-1.34598 1.85024 -2.59604 -2.10526 45.039 19.1543)" gradientUnits="userSpaceOnUse">
<stop stop-color="white"/>
<stop offset="1" stop-color="white" stop-opacity="0"/>
</radialGradient>
<radialGradient id="paint12_radial_1138_208" cx="0" cy="0" r="1" gradientTransform="matrix(-1.05777 1.45405 -2.04016 -1.65446 49.8743 22.9873)" gradientUnits="userSpaceOnUse">
<stop stop-color="white"/>
<stop offset="1" stop-color="white" stop-opacity="0"/>
</radialGradient>
<radialGradient id="paint13_radial_1138_208" cx="0" cy="0" r="1" gradientTransform="matrix(0.830353 -0.399786 1.16378 2.41724 37.0432 25.5167)" gradientUnits="userSpaceOnUse">
<stop stop-color="white"/>
<stop offset="1" stop-color="white" stop-opacity="0"/>
</radialGradient>
</defs>
</svg>
